# WaveFront *.obj file (generated by Autodesk ATF)

mtllib X-TubeWindow-Glass.mtl

g Body1

v -3.000000 6.700000 7.242641
v 0.000000 6.700000 7.242641
v 3.000000 6.700000 7.242641
v 3.000000 7.700000 7.242641
v 0.000000 7.700000 7.242641
v -3.000000 7.700000 7.242641
v -7.242641 6.700000 3.000000
v -5.121320 6.700000 5.121320
v -5.121320 7.700000 5.121320
v -7.242641 7.700000 3.000000
v -7.242641 6.700000 -3.000000
v -7.242641 6.700000 -0.000000
v -7.242641 7.700000 -0.000000
v -7.242641 7.700000 -3.000000
v -3.000000 6.700000 -7.242641
v -5.121320 6.700000 -5.121320
v -5.121320 7.700000 -5.121320
v -3.000000 7.700000 -7.242641
v 3.000000 6.700000 -7.242641
v 0.000000 6.700000 -7.242641
v 0.000000 7.700000 -7.242641
v 3.000000 7.700000 -7.242641
v 7.242641 6.700000 -3.000000
v 5.121320 6.700000 -5.121320
v 5.121320 7.700000 -5.121320
v 7.242641 7.700000 -3.000000
v 7.242641 6.700000 3.000000
v 7.242641 6.700000 0.000000
v 7.242641 7.700000 0.000000
v 7.242641 7.700000 3.000000
v 5.121320 6.700000 5.121320
v 5.121320 7.700000 5.121320
v 0.000000 7.700000 -3.621320
v 0.000000 7.700000 0.000000
v 0.000000 7.700000 3.621320
v 3.621320 7.700000 3.621320
v 3.621320 7.700000 0.000000
v 3.621320 7.700000 -3.621320
v -3.621320 7.700000 -3.621320
v -3.621320 7.700000 0.000000
v -3.621320 7.700000 3.621320
v -3.621320 6.700000 -0.000000
v 0.000000 6.700000 0.000000
v 3.621320 6.700000 0.000000
v 3.621320 6.700000 3.621320
v 0.000000 6.700000 3.621320
v -3.621320 6.700000 3.621320
v -3.621320 6.700000 -3.621320
v 0.000000 6.700000 -3.621320
v 3.621320 6.700000 -3.621320
vt 0.000000 0.000000 0.000000
vt 300.000000 0.000000 0.000000
vt 0.000000 100.000000 0.000000
vt 300.000000 100.000000 0.000000
vt 600.000000 0.000000 0.000000
vt 600.000000 100.000000 0.000000
vt 0.000000 0.000000 0.000000
vt 300.000000 0.000000 0.000000
vt 0.000000 100.000000 0.000000
vt 300.000000 100.000000 0.000000
vt 600.000000 0.000000 0.000000
vt 600.000000 100.000000 0.000000
vt 0.000000 0.000000 0.000000
vt 300.000000 0.000000 0.000000
vt 0.000000 100.000000 0.000000
vt 300.000000 100.000000 0.000000
vt 600.000000 0.000000 0.000000
vt 600.000000 100.000000 0.000000
vt -0.000000 0.000000 0.000000
vt 300.000000 0.000000 0.000000
vt -0.000000 100.000000 0.000000
vt 300.000000 100.000000 0.000000
vt 600.000000 0.000000 0.000000
vt 600.000000 100.000000 0.000000
vt 0.000000 0.000000 0.000000
vt 300.000000 0.000000 0.000000
vt 0.000000 100.000000 0.000000
vt 300.000000 100.000000 0.000000
vt 600.000000 0.000000 0.000000
vt 600.000000 100.000000 0.000000
vt -0.000000 0.000000 0.000000
vt 300.000000 0.000000 0.000000
vt 0.000000 100.000000 0.000000
vt 300.000000 100.000000 0.000000
vt 600.000000 0.000000 0.000000
vt 600.000000 100.000000 0.000000
vt 0.000000 0.000000 0.000000
vt 300.000000 0.000000 0.000000
vt 0.000000 100.000000 0.000000
vt 300.000000 100.000000 0.000000
vt 600.000000 0.000000 0.000000
vt 600.000000 100.000000 0.000000
vt 0.000000 0.000000 0.000000
vt 300.000000 0.000000 0.000000
vt 0.000000 100.000000 0.000000
vt 300.000000 100.000000 0.000000
vt 600.000000 0.000000 0.000000
vt 600.000000 100.000000 0.000000
vt 512.132034 512.132034 0.000000
vt 362.132034 362.132034 0.000000
vt 724.264069 300.000000 0.000000
vt 362.132034 -0.000000 0.000000
vt 724.264069 0.000000 0.000000
vt 724.264069 -300.000000 0.000000
vt 362.132034 -362.132034 0.000000
vt 512.132034 -512.132034 0.000000
vt 300.000000 -724.264069 0.000000
vt 0.000000 -362.132034 0.000000
vt -0.000000 -724.264069 0.000000
vt -300.000000 -724.264069 0.000000
vt -362.132034 -362.132034 0.000000
vt -512.132034 -512.132034 0.000000
vt -724.264069 -300.000000 0.000000
vt -362.132034 -0.000000 0.000000
vt -724.264069 -0.000000 0.000000
vt -724.264069 300.000000 0.000000
vt -362.132034 362.132034 0.000000
vt -512.132034 512.132034 0.000000
vt -300.000000 724.264069 0.000000
vt 0.000000 362.132034 0.000000
vt -0.000000 724.264069 0.000000
vt 300.000000 724.264069 0.000000
vt 0.000000 -0.000000 0.000000
vt -512.132034 -512.132034 0.000000
vt -362.132034 -362.132034 0.000000
vt -724.264069 -300.000000 0.000000
vt -362.132034 0.000000 0.000000
vt -724.264069 0.000000 0.000000
vt -724.264069 300.000000 0.000000
vt -362.132034 362.132034 0.000000
vt -512.132034 512.132034 0.000000
vt -300.000000 724.264069 0.000000
vt 0.000000 362.132034 0.000000
vt 0.000000 724.264069 0.000000
vt 300.000000 724.264069 0.000000
vt 362.132034 362.132034 0.000000
vt 512.132034 512.132034 0.000000
vt 724.264069 300.000000 0.000000
vt 362.132034 0.000000 0.000000
vt 724.264069 0.000000 0.000000
vt 724.264069 -300.000000 0.000000
vt 362.132034 -362.132034 0.000000
vt 512.132034 -512.132034 0.000000
vt 300.000000 -724.264069 0.000000
vt 0.000000 -362.132034 0.000000
vt -0.000000 -724.264069 0.000000
vt -300.000000 -724.264069 0.000000
vt 0.000000 0.000000 0.000000
vn -0.000000 0.000000 100.000000
vn -0.000000 0.000000 100.000000
vn -0.000000 0.000000 100.000000
vn -0.000000 0.000000 100.000000
vn -0.000000 0.000000 100.000000
vn -0.000000 0.000000 100.000000
vn -70.710678 0.000000 70.710678
vn -70.710678 0.000000 70.710678
vn -70.710678 0.000000 70.710678
vn -70.710678 0.000000 70.710678
vn -70.710678 0.000000 70.710678
vn -70.710678 0.000000 70.710678
vn -100.000000 0.000000 -0.000000
vn -100.000000 0.000000 -0.000000
vn -100.000000 0.000000 -0.000000
vn -100.000000 0.000000 -0.000000
vn -100.000000 0.000000 -0.000000
vn -100.000000 0.000000 -0.000000
vn -70.710678 0.000000 -70.710678
vn -70.710678 0.000000 -70.710678
vn -70.710678 0.000000 -70.710678
vn -70.710678 0.000000 -70.710678
vn -70.710678 0.000000 -70.710678
vn -70.710678 0.000000 -70.710678
vn 0.000000 0.000000 -100.000000
vn 0.000000 0.000000 -100.000000
vn 0.000000 0.000000 -100.000000
vn 0.000000 0.000000 -100.000000
vn 0.000000 0.000000 -100.000000
vn 0.000000 0.000000 -100.000000
vn 70.710678 0.000000 -70.710678
vn 70.710678 0.000000 -70.710678
vn 70.710678 0.000000 -70.710678
vn 70.710678 0.000000 -70.710678
vn 70.710678 0.000000 -70.710678
vn 70.710678 0.000000 -70.710678
vn 100.000000 -0.000000 0.000000
vn 100.000000 -0.000000 0.000000
vn 100.000000 -0.000000 0.000000
vn 100.000000 -0.000000 0.000000
vn 100.000000 -0.000000 0.000000
vn 100.000000 -0.000000 0.000000
vn 70.710678 -0.000000 70.710678
vn 70.710678 -0.000000 70.710678
vn 70.710678 -0.000000 70.710678
vn 70.710678 -0.000000 70.710678
vn 70.710678 -0.000000 70.710678
vn 70.710678 -0.000000 70.710678
vn 0.000000 100.000000 0.000000
vn 0.000000 100.000000 0.000000
vn 0.000000 100.000000 0.000000
vn 0.000000 100.000000 0.000000
vn 0.000000 100.000000 0.000000
vn 0.000000 100.000000 0.000000
vn 0.000000 100.000000 0.000000
vn 0.000000 100.000000 0.000000
vn 0.000000 100.000000 0.000000
vn 0.000000 100.000000 0.000000
vn 0.000000 100.000000 0.000000
vn 0.000000 100.000000 0.000000
vn 0.000000 100.000000 0.000000
vn 0.000000 100.000000 0.000000
vn 0.000000 100.000000 0.000000
vn 0.000000 100.000000 0.000000
vn 0.000000 100.000000 0.000000
vn 0.000000 100.000000 0.000000
vn 0.000000 100.000000 0.000000
vn 0.000000 100.000000 0.000000
vn 0.000000 100.000000 0.000000
vn 0.000000 100.000000 0.000000
vn 0.000000 100.000000 0.000000
vn 0.000000 100.000000 0.000000
vn 0.000000 100.000000 0.000000
vn 0.000000 -100.000000 0.000000
vn 0.000000 -100.000000 0.000000
vn 0.000000 -100.000000 0.000000
vn 0.000000 -100.000000 0.000000
vn 0.000000 -100.000000 0.000000
vn 0.000000 -100.000000 0.000000
vn 0.000000 -100.000000 0.000000
vn 0.000000 -100.000000 0.000000
vn 0.000000 -100.000000 0.000000
vn 0.000000 -100.000000 0.000000
vn 0.000000 -100.000000 0.000000
vn 0.000000 -100.000000 0.000000
vn 0.000000 -100.000000 0.000000
vn 0.000000 -100.000000 0.000000
vn 0.000000 -100.000000 0.000000
vn 0.000000 -100.000000 0.000000
vn 0.000000 -100.000000 0.000000
vn 0.000000 -100.000000 0.000000
vn 0.000000 -100.000000 0.000000
vn 0.000000 -100.000000 0.000000
vn 0.000000 -100.000000 0.000000
vn 0.000000 -100.000000 0.000000
vn 0.000000 -100.000000 0.000000
vn 0.000000 -100.000000 0.000000
vn 0.000000 -100.000000 0.000000
usemtl Steel_-_Satin
f 1/1/1 2/2/2 6/3/3
f 6/3/3 2/2/2 5/4/4
f 5/4/4 2/2/2 3/5/5
f 5/4/4 3/5/5 4/6/6
f 7/7/7 8/8/8 10/9/9
f 10/9/9 8/8/8 9/10/10
f 9/10/10 8/8/8 1/11/11
f 9/10/10 1/11/11 6/12/12
f 11/13/13 12/14/14 14/15/15
f 14/15/15 12/14/14 13/16/16
f 13/16/16 12/14/14 7/17/17
f 13/16/16 7/17/17 10/18/18
f 15/19/19 16/20/20 18/21/21
f 18/21/21 16/20/20 17/22/22
f 17/22/22 16/20/20 11/23/23
f 17/22/22 11/23/23 14/24/24
f 19/25/25 20/26/26 22/27/27
f 22/27/27 20/26/26 21/28/28
f 21/28/28 20/26/26 15/29/29
f 21/28/28 15/29/29 18/30/30
f 23/31/31 24/32/32 26/33/33
f 26/33/33 24/32/32 25/34/34
f 25/34/34 24/32/32 19/35/35
f 25/34/34 19/35/35 22/36/36
f 27/37/37 28/38/38 30/39/39
f 30/39/39 28/38/38 29/40/40
f 29/40/40 28/38/38 23/41/41
f 29/40/40 23/41/41 26/42/42
f 3/43/43 31/44/44 4/45/45
f 4/45/45 31/44/44 32/46/46
f 32/46/46 31/44/44 27/47/47
f 32/46/46 27/47/47 30/48/48
f 32/49/49 36/50/50 4/51/51
f 4/51/51 36/50/50 35/52/52
f 4/51/51 35/52/52 5/53/53
f 5/53/53 35/52/52 6/54/54
f 6/54/54 35/52/52 41/55/55
f 6/54/54 41/55/55 9/56/56
f 9/56/56 41/55/55 10/57/57
f 10/57/57 41/55/55 40/58/58
f 10/57/57 40/58/58 13/59/59
f 13/59/59 40/58/58 14/60/60
f 14/60/60 40/58/58 39/61/61
f 14/60/60 39/61/61 17/62/62
f 17/62/62 39/61/61 18/63/63
f 18/63/63 39/61/61 33/64/64
f 18/63/63 33/64/64 21/65/65
f 21/65/65 33/64/64 22/66/66
f 22/66/66 33/64/64 38/67/67
f 22/66/66 38/67/67 25/68/68
f 25/68/68 38/67/67 26/69/69
f 26/69/69 38/67/67 37/70/70
f 26/69/69 37/70/70 29/71/71
f 29/71/71 37/70/70 30/72/72
f 30/72/72 37/70/70 36/50/50
f 30/72/72 36/50/50 32/49/49
f 37/70/70 38/67/67 34/73/73
f 34/73/73 38/67/67 33/64/64
f 34/73/73 33/64/64 40/58/58
f 40/58/58 33/64/64 39/61/61
f 36/50/50 37/70/70 35/52/52
f 35/52/52 37/70/70 34/73/73
f 35/52/52 34/73/73 41/55/55
f 41/55/55 34/73/73 40/58/58
f 31/74/74 45/75/75 27/76/76
f 27/76/76 45/75/75 44/77/77
f 27/76/76 44/77/77 28/78/78
f 28/78/78 44/77/77 23/79/79
f 23/79/79 44/77/77 50/80/80
f 23/79/79 50/80/80 24/81/81
f 24/81/81 50/80/80 19/82/82
f 19/82/82 50/80/80 49/83/83
f 19/82/82 49/83/83 20/84/84
f 20/84/84 49/83/83 15/85/85
f 15/85/85 49/83/83 48/86/86
f 15/85/85 48/86/86 16/87/87
f 16/87/87 48/86/86 11/88/88
f 11/88/88 48/86/86 42/89/89
f 11/88/88 42/89/89 12/90/90
f 12/90/90 42/89/89 7/91/91
f 7/91/91 42/89/89 47/92/92
f 7/91/91 47/92/92 8/93/93
f 8/93/93 47/92/92 1/94/94
f 1/94/94 47/92/92 46/95/95
f 1/94/94 46/95/95 2/96/96
f 2/96/96 46/95/95 3/97/97
f 3/97/97 46/95/95 45/75/75
f 3/97/97 45/75/75 31/74/74
f 46/95/95 47/92/92 43/98/98
f 43/98/98 47/92/92 42/89/89
f 43/98/98 42/89/89 49/83/83
f 49/83/83 42/89/89 48/86/86
f 45/75/75 46/95/95 44/77/77
f 44/77/77 46/95/95 43/98/98
f 44/77/77 43/98/98 50/80/80
f 50/80/80 43/98/98 49/83/83
# 50 vertices
# 98 texture params
# 98 normals
# 96 facets

# 1 groups
