# WaveFront *.obj file (generated by Autodesk ATF)

mtllib thin-short.mtl

g Body1

v -0.390000 1.000000 -0.065000
v -0.390000 0.890000 -0.175000
v -0.500000 0.890000 -0.065000
v 0.390000 1.000000 -0.065000
v 0.500000 0.890000 -0.065000
v 0.390000 0.890000 -0.175000
v -0.390000 1.000000 0.065000
v -0.500000 0.890000 0.065000
v -0.390000 0.890000 0.175000
v -0.390000 -1.000000 -0.065000
v -0.500000 -0.890000 -0.065000
v -0.390000 -0.890000 -0.175000
v 0.390000 1.000000 0.065000
v 0.390000 0.890000 0.175000
v 0.500000 0.890000 0.065000
v 0.390000 -1.000000 -0.065000
v 0.390000 -0.890000 -0.175000
v 0.500000 -0.890000 -0.065000
v -0.390000 -1.000000 0.065000
v -0.390000 -0.890000 0.175000
v -0.500000 -0.890000 0.065000
v 0.390000 -1.000000 0.065000
v 0.500000 -0.890000 0.065000
v 0.390000 -0.890000 0.175000
vt -7.778175 13.472194 0.000000
vt -15.556349 0.000000 0.000000
vt 0.000000 0.000000 0.000000
vt -7.778175 13.472194 0.000000
vt -15.556349 0.000000 0.000000
vt 0.000000 0.000000 0.000000
vt -7.778175 13.472194 0.000000
vt -15.556349 0.000000 0.000000
vt -0.000000 0.000000 0.000000
vt 7.778175 -13.472194 0.000000
vt 15.556349 0.000000 0.000000
vt 0.000000 0.000000 0.000000
vt 7.778175 89.000000 0.000000
vt -7.778175 89.000000 0.000000
vt 7.778175 -89.000000 0.000000
vt -7.778175 -89.000000 0.000000
vt -7.778175 13.472194 0.000000
vt -15.556349 0.000000 0.000000
vt 0.000000 0.000000 0.000000
vt 7.778175 -13.472194 0.000000
vt 15.556349 0.000000 0.000000
vt 0.000000 0.000000 0.000000
vt 7.778175 89.000000 0.000000
vt -7.778175 89.000000 0.000000
vt 7.778175 -89.000000 0.000000
vt -7.778175 -89.000000 0.000000
vt 7.778175 -13.472194 0.000000
vt 15.556349 0.000000 0.000000
vt 0.000000 0.000000 0.000000
vt -7.778175 -89.000000 0.000000
vt 7.778175 -89.000000 0.000000
vt -7.778175 89.000000 0.000000
vt 7.778175 89.000000 0.000000
vt 2.250000 -7.778175 0.000000
vt 15.250000 -7.778175 0.000000
vt 2.250000 7.778175 0.000000
vt 15.250000 7.778175 0.000000
vt 7.778175 -13.472194 0.000000
vt 15.556349 0.000000 0.000000
vt -0.000000 -0.000000 0.000000
vt 7.778175 89.000000 0.000000
vt -7.778175 89.000000 0.000000
vt 7.778175 -89.000000 0.000000
vt -7.778175 -89.000000 0.000000
vt -14.000000 -7.778175 0.000000
vt 64.000000 -7.778175 0.000000
vt -14.000000 7.778175 0.000000
vt 64.000000 7.778175 0.000000
vt 2.250000 -7.778175 0.000000
vt 15.250000 -7.778175 0.000000
vt 2.250000 7.778175 0.000000
vt 15.250000 7.778175 0.000000
vt -14.000000 -7.778175 0.000000
vt 64.000000 -7.778175 0.000000
vt -14.000000 7.778175 0.000000
vt 64.000000 7.778175 0.000000
vt 15.250000 7.778175 0.000000
vt 2.250000 7.778175 0.000000
vt 15.250000 -7.778175 0.000000
vt 2.250000 -7.778175 0.000000
vt 64.000000 7.778175 0.000000
vt -14.000000 7.778175 0.000000
vt 64.000000 -7.778175 0.000000
vt -14.000000 -7.778175 0.000000
vt 15.250000 7.778175 0.000000
vt 2.250000 7.778175 0.000000
vt 15.250000 -7.778175 0.000000
vt 2.250000 -7.778175 0.000000
vt 64.000000 7.778175 0.000000
vt -14.000000 7.778175 0.000000
vt 64.000000 -7.778175 0.000000
vt -14.000000 -7.778175 0.000000
vt 11.000000 -89.000000 0.000000
vt 89.000000 -89.000000 0.000000
vt 11.000000 89.000000 0.000000
vt 89.000000 89.000000 0.000000
vt 24.000000 89.000000 0.000000
vt 11.000000 89.000000 0.000000
vt 24.000000 -89.000000 0.000000
vt 11.000000 -89.000000 0.000000
vt -6.500000 -39.000000 0.000000
vt 6.500000 -39.000000 0.000000
vt -6.500000 39.000000 0.000000
vt 6.500000 39.000000 0.000000
vt 11.000000 -89.000000 0.000000
vt 24.000000 -89.000000 0.000000
vt 11.000000 89.000000 0.000000
vt 24.000000 89.000000 0.000000
vt 89.000000 89.000000 0.000000
vt 11.000000 89.000000 0.000000
vt 89.000000 -89.000000 0.000000
vt 11.000000 -89.000000 0.000000
vt 6.500000 39.000000 0.000000
vt -6.500000 39.000000 0.000000
vt 6.500000 -39.000000 0.000000
vt -6.500000 -39.000000 0.000000
vn -57.735027 57.735027 -57.735027
vn -57.735027 57.735027 -57.735027
vn -57.735027 57.735027 -57.735027
vn 57.735027 57.735027 -57.735027
vn 57.735027 57.735027 -57.735027
vn 57.735027 57.735027 -57.735027
vn -57.735027 57.735027 57.735027
vn -57.735027 57.735027 57.735027
vn -57.735027 57.735027 57.735027
vn -57.735027 -57.735027 -57.735027
vn -57.735027 -57.735027 -57.735027
vn -57.735027 -57.735027 -57.735027
vn -70.710678 0.000000 -70.710678
vn -70.710678 0.000000 -70.710678
vn -70.710678 0.000000 -70.710678
vn -70.710678 0.000000 -70.710678
vn 57.735027 57.735027 57.735027
vn 57.735027 57.735027 57.735027
vn 57.735027 57.735027 57.735027
vn 57.735027 -57.735027 -57.735027
vn 57.735027 -57.735027 -57.735027
vn 57.735027 -57.735027 -57.735027
vn 70.710678 0.000000 -70.710678
vn 70.710678 0.000000 -70.710678
vn 70.710678 0.000000 -70.710678
vn 70.710678 0.000000 -70.710678
vn -57.735027 -57.735027 57.735027
vn -57.735027 -57.735027 57.735027
vn -57.735027 -57.735027 57.735027
vn -70.710678 0.000000 70.710678
vn -70.710678 0.000000 70.710678
vn -70.710678 0.000000 70.710678
vn -70.710678 0.000000 70.710678
vn -70.710678 -70.710678 0.000000
vn -70.710678 -70.710678 0.000000
vn -70.710678 -70.710678 0.000000
vn -70.710678 -70.710678 0.000000
vn 57.735027 -57.735027 57.735027
vn 57.735027 -57.735027 57.735027
vn 57.735027 -57.735027 57.735027
vn 70.710678 -0.000000 70.710678
vn 70.710678 -0.000000 70.710678
vn 70.710678 -0.000000 70.710678
vn 70.710678 -0.000000 70.710678
vn 0.000000 -70.710678 70.710678
vn 0.000000 -70.710678 70.710678
vn 0.000000 -70.710678 70.710678
vn 0.000000 -70.710678 70.710678
vn 70.710678 -70.710678 0.000000
vn 70.710678 -70.710678 0.000000
vn 70.710678 -70.710678 0.000000
vn 70.710678 -70.710678 0.000000
vn -0.000000 -70.710678 -70.710678
vn -0.000000 -70.710678 -70.710678
vn -0.000000 -70.710678 -70.710678
vn -0.000000 -70.710678 -70.710678
vn 70.710678 70.710678 0.000000
vn 70.710678 70.710678 0.000000
vn 70.710678 70.710678 0.000000
vn 70.710678 70.710678 0.000000
vn 0.000000 70.710678 70.710678
vn 0.000000 70.710678 70.710678
vn 0.000000 70.710678 70.710678
vn 0.000000 70.710678 70.710678
vn -70.710678 70.710678 0.000000
vn -70.710678 70.710678 0.000000
vn -70.710678 70.710678 0.000000
vn -70.710678 70.710678 0.000000
vn -0.000000 70.710678 -70.710678
vn -0.000000 70.710678 -70.710678
vn -0.000000 70.710678 -70.710678
vn -0.000000 70.710678 -70.710678
vn -0.000000 0.000000 -100.000000
vn -0.000000 0.000000 -100.000000
vn -0.000000 0.000000 -100.000000
vn -0.000000 0.000000 -100.000000
vn -100.000000 0.000000 0.000000
vn -100.000000 0.000000 0.000000
vn -100.000000 0.000000 0.000000
vn -100.000000 0.000000 0.000000
vn 0.000000 -100.000000 0.000000
vn 0.000000 -100.000000 0.000000
vn 0.000000 -100.000000 0.000000
vn 0.000000 -100.000000 0.000000
vn 100.000000 -0.000000 0.000000
vn 100.000000 -0.000000 0.000000
vn 100.000000 -0.000000 0.000000
vn 100.000000 -0.000000 0.000000
vn 0.000000 -0.000000 100.000000
vn 0.000000 -0.000000 100.000000
vn 0.000000 -0.000000 100.000000
vn 0.000000 -0.000000 100.000000
vn 0.000000 100.000000 0.000000
vn 0.000000 100.000000 0.000000
vn 0.000000 100.000000 0.000000
vn 0.000000 100.000000 0.000000
usemtl Steel_-_Satin
f 1/1/1 2/2/2 3/3/3
f 4/4/4 5/5/5 6/6/6
f 7/7/7 8/8/8 9/9/9
f 10/10/10 11/11/11 12/12/12
f 3/13/13 2/14/14 11/15/15
f 11/15/15 2/14/14 12/16/16
f 13/17/17 14/18/18 15/19/19
f 16/20/20 17/21/21 18/22/22
f 6/23/23 5/24/24 17/25/25
f 17/25/25 5/24/24 18/26/26
f 19/27/27 20/28/28 21/29/29
f 21/30/30 20/31/31 8/32/32
f 8/32/32 20/31/31 9/33/33
f 10/34/34 19/35/35 11/36/36
f 11/36/36 19/35/35 21/37/37
f 22/38/38 23/39/39 24/40/40
f 15/41/41 14/42/42 23/43/43
f 23/43/43 14/42/42 24/44/44
f 19/45/45 22/46/46 20/47/47
f 20/47/47 22/46/46 24/48/48
f 22/49/49 16/50/50 23/51/51
f 23/51/51 16/50/50 18/52/52
f 16/53/53 10/54/54 17/55/55
f 17/55/55 10/54/54 12/56/56
f 4/57/57 13/58/58 5/59/59
f 5/59/59 13/58/58 15/60/60
f 13/61/61 7/62/62 14/63/63
f 14/63/63 7/62/62 9/64/64
f 7/65/65 1/66/66 8/67/67
f 8/67/67 1/66/66 3/68/68
f 1/69/69 4/70/70 2/71/71
f 2/71/71 4/70/70 6/72/72
f 17/73/73 12/74/74 6/75/75
f 6/75/75 12/74/74 2/76/76
f 8/77/77 3/78/78 21/79/79
f 21/79/79 3/78/78 11/80/80
f 19/81/81 10/82/82 22/83/83
f 22/83/83 10/82/82 16/84/84
f 23/85/85 18/86/86 15/87/87
f 15/87/87 18/86/86 5/88/88
f 14/89/89 9/90/90 24/91/91
f 24/91/91 9/90/90 20/92/92
f 13/93/93 4/94/94 7/95/95
f 7/95/95 4/94/94 1/96/96
# 24 vertices
# 96 texture params
# 96 normals
# 44 facets

# 1 groups
