# WaveFront *.obj file (generated by Autodesk ATF)

mtllib thin-medium.mtl

g Body1

v -1.890000 1.000000 -0.065000
v -1.890000 0.890000 -0.175000
v -2.000000 0.890000 -0.065000
v 1.890000 1.000000 -0.065000
v 2.000000 0.890000 -0.065000
v 1.890000 0.890000 -0.175000
v -1.890000 -1.000000 -0.065000
v -2.000000 -0.890000 -0.065000
v -1.890000 -0.890000 -0.175000
v -1.890000 1.000000 0.065000
v -2.000000 0.890000 0.065000
v -1.890000 0.890000 0.175000
v 1.890000 -1.000000 -0.065000
v 1.890000 -0.890000 -0.175000
v 2.000000 -0.890000 -0.065000
v 1.890000 1.000000 0.065000
v 1.890000 0.890000 0.175000
v 2.000000 0.890000 0.065000
v -1.890000 -1.000000 0.065000
v -1.890000 -0.890000 0.175000
v -2.000000 -0.890000 0.065000
v 1.890000 -1.000000 0.065000
v 2.000000 -0.890000 0.065000
v 1.890000 -0.890000 0.175000
v 0.000000 -1.000000 0.065000
v 0.000000 -0.890000 0.175000
v 0.000000 1.000000 0.065000
v 0.000000 0.890000 0.175000
v 0.000000 -1.000000 -0.065000
v 0.000000 -0.890000 -0.175000
v 0.000000 1.000000 -0.065000
v 0.000000 0.890000 -0.175000
vt -7.778175 13.472194 0.000000
vt -15.556349 0.000000 0.000000
vt 0.000000 0.000000 0.000000
vt -7.778175 13.472194 0.000000
vt -15.556349 0.000000 0.000000
vt 0.000000 0.000000 0.000000
vt 7.778175 -13.472194 0.000000
vt 15.556349 0.000000 0.000000
vt 0.000000 0.000000 0.000000
vt 7.778175 89.000000 0.000000
vt -7.778175 89.000000 0.000000
vt 7.778175 -89.000000 0.000000
vt -7.778175 -89.000000 0.000000
vt -7.778175 13.472194 0.000000
vt -15.556349 0.000000 0.000000
vt 0.000000 0.000000 0.000000
vt 7.778175 -13.472194 0.000000
vt 15.556349 0.000000 0.000000
vt 0.000000 0.000000 0.000000
vt 7.778175 89.000000 0.000000
vt -7.778175 89.000000 0.000000
vt 7.778175 -89.000000 0.000000
vt -7.778175 -89.000000 0.000000
vt -7.778175 13.472194 0.000000
vt -15.556349 -0.000000 0.000000
vt 0.000000 0.000000 0.000000
vt 7.778175 -13.472194 0.000000
vt 15.556349 0.000000 0.000000
vt 0.000000 0.000000 0.000000
vt 7.778175 89.000000 0.000000
vt -7.778175 89.000000 0.000000
vt 7.778175 -89.000000 0.000000
vt -7.778175 -89.000000 0.000000
vt 2.250000 -7.778175 0.000000
vt 15.250000 -7.778175 0.000000
vt 2.250000 7.778175 0.000000
vt 15.250000 7.778175 0.000000
vt 7.778175 -13.472194 0.000000
vt 15.556349 -0.000000 0.000000
vt 0.000000 0.000000 0.000000
vt 7.778175 89.000000 0.000000
vt -7.778175 89.000000 0.000000
vt 7.778175 -89.000000 0.000000
vt -7.778175 -89.000000 0.000000
vt -89.000000 -7.778175 0.000000
vt 100.000000 -7.778175 0.000000
vt -89.000000 7.778175 0.000000
vt 100.000000 7.778175 0.000000
vt 289.000000 -7.778175 0.000000
vt 289.000000 7.778175 0.000000
vt 2.250000 -7.778175 0.000000
vt 15.250000 -7.778175 0.000000
vt 2.250000 7.778175 0.000000
vt 15.250000 7.778175 0.000000
vt 15.250000 7.778175 0.000000
vt 2.250000 7.778175 0.000000
vt 15.250000 -7.778175 0.000000
vt 2.250000 -7.778175 0.000000
vt 289.000000 7.778175 0.000000
vt 100.000000 7.778175 0.000000
vt 289.000000 -7.778175 0.000000
vt 100.000000 -7.778175 0.000000
vt -89.000000 7.778175 0.000000
vt -89.000000 -7.778175 0.000000
vt -89.000000 -7.778175 0.000000
vt 100.000000 -7.778175 0.000000
vt -89.000000 7.778175 0.000000
vt 100.000000 7.778175 0.000000
vt 289.000000 -7.778175 0.000000
vt 289.000000 7.778175 0.000000
vt 15.250000 7.778175 0.000000
vt 2.250000 7.778175 0.000000
vt 15.250000 -7.778175 0.000000
vt 2.250000 -7.778175 0.000000
vt 289.000000 7.778175 0.000000
vt 100.000000 7.778175 0.000000
vt 289.000000 -7.778175 0.000000
vt 100.000000 -7.778175 0.000000
vt -89.000000 7.778175 0.000000
vt -89.000000 -7.778175 0.000000
vt 11.000000 -89.000000 0.000000
vt 200.000000 -89.000000 0.000000
vt 11.000000 89.000000 0.000000
vt 200.000000 89.000000 0.000000
vt 389.000000 -89.000000 0.000000
vt 389.000000 89.000000 0.000000
vt 24.000000 89.000000 0.000000
vt 11.000000 89.000000 0.000000
vt 24.000000 -89.000000 0.000000
vt 11.000000 -89.000000 0.000000
vt -6.500000 -189.000000 0.000000
vt 6.500000 -189.000000 0.000000
vt -6.500000 0.000000 0.000000
vt 6.500000 0.000000 0.000000
vt -6.500000 189.000000 0.000000
vt 6.500000 189.000000 0.000000
vt 11.000000 -89.000000 0.000000
vt 24.000000 -89.000000 0.000000
vt 11.000000 89.000000 0.000000
vt 24.000000 89.000000 0.000000
vt 389.000000 89.000000 0.000000
vt 200.000000 89.000000 0.000000
vt 389.000000 -89.000000 0.000000
vt 200.000000 -89.000000 0.000000
vt 11.000000 89.000000 0.000000
vt 11.000000 -89.000000 0.000000
vt 6.500000 189.000000 0.000000
vt -6.500000 189.000000 0.000000
vt 6.500000 0.000000 0.000000
vt -6.500000 0.000000 0.000000
vt 6.500000 -189.000000 0.000000
vt -6.500000 -189.000000 0.000000
vn -57.735027 57.735027 -57.735027
vn -57.735027 57.735027 -57.735027
vn -57.735027 57.735027 -57.735027
vn 57.735027 57.735027 -57.735027
vn 57.735027 57.735027 -57.735027
vn 57.735027 57.735027 -57.735027
vn -57.735027 -57.735027 -57.735027
vn -57.735027 -57.735027 -57.735027
vn -57.735027 -57.735027 -57.735027
vn -70.710678 0.000000 -70.710678
vn -70.710678 0.000000 -70.710678
vn -70.710678 0.000000 -70.710678
vn -70.710678 0.000000 -70.710678
vn -57.735027 57.735027 57.735027
vn -57.735027 57.735027 57.735027
vn -57.735027 57.735027 57.735027
vn 57.735027 -57.735027 -57.735027
vn 57.735027 -57.735027 -57.735027
vn 57.735027 -57.735027 -57.735027
vn 70.710678 0.000000 -70.710678
vn 70.710678 0.000000 -70.710678
vn 70.710678 0.000000 -70.710678
vn 70.710678 0.000000 -70.710678
vn 57.735027 57.735027 57.735027
vn 57.735027 57.735027 57.735027
vn 57.735027 57.735027 57.735027
vn -57.735027 -57.735027 57.735027
vn -57.735027 -57.735027 57.735027
vn -57.735027 -57.735027 57.735027
vn -70.710678 0.000000 70.710678
vn -70.710678 0.000000 70.710678
vn -70.710678 0.000000 70.710678
vn -70.710678 0.000000 70.710678
vn -70.710678 -70.710678 0.000000
vn -70.710678 -70.710678 0.000000
vn -70.710678 -70.710678 0.000000
vn -70.710678 -70.710678 0.000000
vn 57.735027 -57.735027 57.735027
vn 57.735027 -57.735027 57.735027
vn 57.735027 -57.735027 57.735027
vn 70.710678 -0.000000 70.710678
vn 70.710678 -0.000000 70.710678
vn 70.710678 -0.000000 70.710678
vn 70.710678 -0.000000 70.710678
vn 0.000000 -70.710678 70.710678
vn 0.000000 -70.710678 70.710678
vn 0.000000 -70.710678 70.710678
vn 0.000000 -70.710678 70.710678
vn 0.000000 -70.710678 70.710678
vn 0.000000 -70.710678 70.710678
vn 70.710678 -70.710678 0.000000
vn 70.710678 -70.710678 0.000000
vn 70.710678 -70.710678 0.000000
vn 70.710678 -70.710678 0.000000
vn 70.710678 70.710678 0.000000
vn 70.710678 70.710678 0.000000
vn 70.710678 70.710678 0.000000
vn 70.710678 70.710678 0.000000
vn 0.000000 70.710678 70.710678
vn 0.000000 70.710678 70.710678
vn 0.000000 70.710678 70.710678
vn 0.000000 70.710678 70.710678
vn 0.000000 70.710678 70.710678
vn 0.000000 70.710678 70.710678
vn 0.000000 -70.710678 -70.710678
vn 0.000000 -70.710678 -70.710678
vn 0.000000 -70.710678 -70.710678
vn 0.000000 -70.710678 -70.710678
vn 0.000000 -70.710678 -70.710678
vn 0.000000 -70.710678 -70.710678
vn -70.710678 70.710678 0.000000
vn -70.710678 70.710678 0.000000
vn -70.710678 70.710678 0.000000
vn -70.710678 70.710678 0.000000
vn 0.000000 70.710678 -70.710678
vn 0.000000 70.710678 -70.710678
vn 0.000000 70.710678 -70.710678
vn 0.000000 70.710678 -70.710678
vn 0.000000 70.710678 -70.710678
vn 0.000000 70.710678 -70.710678
vn 0.000000 0.000000 -100.000000
vn 0.000000 0.000000 -100.000000
vn 0.000000 0.000000 -100.000000
vn 0.000000 0.000000 -100.000000
vn 0.000000 0.000000 -100.000000
vn 0.000000 0.000000 -100.000000
vn -100.000000 0.000000 0.000000
vn -100.000000 0.000000 0.000000
vn -100.000000 0.000000 0.000000
vn -100.000000 0.000000 0.000000
vn 0.000000 -100.000000 0.000000
vn 0.000000 -100.000000 0.000000
vn 0.000000 -100.000000 0.000000
vn 0.000000 -100.000000 0.000000
vn 0.000000 -100.000000 0.000000
vn 0.000000 -100.000000 0.000000
vn 100.000000 -0.000000 0.000000
vn 100.000000 -0.000000 0.000000
vn 100.000000 -0.000000 0.000000
vn 100.000000 -0.000000 0.000000
vn 0.000000 -0.000000 100.000000
vn 0.000000 -0.000000 100.000000
vn 0.000000 -0.000000 100.000000
vn 0.000000 -0.000000 100.000000
vn 0.000000 -0.000000 100.000000
vn 0.000000 -0.000000 100.000000
vn 0.000000 100.000000 0.000000
vn 0.000000 100.000000 0.000000
vn 0.000000 100.000000 0.000000
vn 0.000000 100.000000 0.000000
vn 0.000000 100.000000 0.000000
vn 0.000000 100.000000 0.000000
usemtl Steel_-_Satin
f 1/1/1 2/2/2 3/3/3
f 4/4/4 5/5/5 6/6/6
f 7/7/7 8/8/8 9/9/9
f 3/10/10 2/11/11 8/12/12
f 8/12/12 2/11/11 9/13/13
f 10/14/14 11/15/15 12/16/16
f 13/17/17 14/18/18 15/19/19
f 6/20/20 5/21/21 14/22/22
f 14/22/22 5/21/21 15/23/23
f 16/24/24 17/25/25 18/26/26
f 19/27/27 20/28/28 21/29/29
f 12/30/30 11/31/31 20/32/32
f 20/32/32 11/31/31 21/33/33
f 7/34/34 19/35/35 8/36/36
f 8/36/36 19/35/35 21/37/37
f 22/38/38 23/39/39 24/40/40
f 18/41/41 17/42/42 23/43/43
f 23/43/43 17/42/42 24/44/44
f 19/45/45 25/46/46 20/47/47
f 20/47/47 25/46/46 26/48/48
f 26/48/48 25/46/46 22/49/49
f 26/48/48 22/49/49 24/50/50
f 22/51/51 13/52/52 23/53/53
f 23/53/53 13/52/52 15/54/54
f 4/55/55 16/56/56 5/57/57
f 5/57/57 16/56/56 18/58/58
f 16/59/59 27/60/60 17/61/61
f 17/61/61 27/60/60 28/62/62
f 28/62/62 27/60/60 10/63/63
f 28/62/62 10/63/63 12/64/64
f 13/65/65 29/66/66 14/67/67
f 14/67/67 29/66/66 30/68/68
f 30/68/68 29/66/66 7/69/69
f 30/68/68 7/69/69 9/70/70
f 10/71/71 1/72/72 11/73/73
f 11/73/73 1/72/72 3/74/74
f 1/75/75 31/76/76 2/77/77
f 2/77/77 31/76/76 32/78/78
f 32/78/78 31/76/76 4/79/79
f 32/78/78 4/79/79 6/80/80
f 14/81/81 30/82/82 6/83/83
f 6/83/83 30/82/82 32/84/84
f 32/84/84 30/82/82 9/85/85
f 32/84/84 9/85/85 2/86/86
f 11/87/87 3/88/88 21/89/89
f 21/89/89 3/88/88 8/90/90
f 19/91/91 7/92/92 25/93/93
f 25/93/93 7/92/92 29/94/94
f 25/93/93 29/94/94 22/95/95
f 22/95/95 29/94/94 13/96/96
f 23/97/97 15/98/98 18/99/99
f 18/99/99 15/98/98 5/100/100
f 17/101/101 28/102/102 24/103/103
f 24/103/103 28/102/102 26/104/104
f 26/104/104 28/102/102 12/105/105
f 26/104/104 12/105/105 20/106/106
f 16/107/107 4/108/108 27/109/109
f 27/109/109 4/108/108 31/110/110
f 27/109/109 31/110/110 10/111/111
f 10/111/111 31/110/110 1/112/112
# 32 vertices
# 112 texture params
# 112 normals
# 60 facets

# 1 groups
