# Blender v2.93.4 OBJ File: 'thin-middle.blend'
# www.blender.org
mtllib thin-middle.mtl
o thin-medium
v -1.890000 0.065000 1.000000
v -1.890000 0.175000 0.890000
v -2.000000 0.065000 0.890000
v 1.890000 0.065000 1.000000
v 2.000000 0.065000 0.890000
v 1.890000 0.175000 0.890000
v -1.890000 0.065000 -1.000000
v -2.000000 0.065000 -0.890000
v -1.890000 0.175000 -0.890000
v -1.890000 -0.065000 1.000000
v -2.000000 -0.065000 0.890000
v -1.890000 -0.175000 0.890000
v 1.890000 0.065000 -1.000000
v 1.890000 0.175000 -0.890000
v 2.000000 0.065000 -0.890000
v 1.890000 -0.065000 1.000000
v 1.890000 -0.175000 0.890000
v 2.000000 -0.065000 0.890000
v -1.890000 -0.065000 -1.000000
v -1.890000 -0.175000 -0.890000
v -2.000000 -0.065000 -0.890000
v 1.890000 -0.065000 -1.000000
v 2.000000 -0.065000 -0.890000
v 1.890000 -0.175000 -0.890000
v 0.000000 -0.065000 -1.000000
v 0.000000 -0.175000 -0.890000
v 0.000000 -0.065000 1.000000
v 0.000000 -0.175000 0.890000
v 0.000000 0.065000 -1.000000
v 0.000000 0.175000 -0.890000
v 0.000000 0.065000 1.000000
v 0.000000 0.175000 0.890000
vt -7.778175 13.472194
vt -15.556349 0.000000
vt 0.000000 0.000000
vt -7.778175 13.472194
vt -15.556349 0.000000
vt 0.000000 0.000000
vt 7.778175 -13.472194
vt 15.556349 0.000000
vt 0.000000 0.000000
vt 7.778175 89.000000
vt -7.778175 89.000000
vt 7.778175 -89.000000
vt -7.778175 -89.000000
vt -7.778175 13.472194
vt -15.556349 0.000000
vt 0.000000 0.000000
vt 7.778175 -13.472194
vt 15.556349 0.000000
vt 0.000000 0.000000
vt 7.778175 89.000000
vt -7.778175 89.000000
vt 7.778175 -89.000000
vt -7.778175 -89.000000
vt -7.778175 13.472194
vt -15.556349 -0.000000
vt 0.000000 0.000000
vt 7.778175 -13.472194
vt 15.556349 0.000000
vt 0.000000 0.000000
vt 7.778175 89.000000
vt -7.778175 89.000000
vt 7.778175 -89.000000
vt -7.778175 -89.000000
vt 2.250000 -7.778175
vt 15.250000 -7.778175
vt 2.250000 7.778175
vt 15.250000 7.778175
vt 7.778175 -13.472194
vt 15.556349 -0.000000
vt 0.000000 0.000000
vt 7.778175 89.000000
vt -7.778175 89.000000
vt 7.778175 -89.000000
vt -7.778175 -89.000000
vt -89.000000 -7.778175
vt 100.000000 -7.778175
vt -89.000000 7.778175
vt 100.000000 7.778175
vt 289.000000 -7.778175
vt 289.000000 7.778175
vt 2.250000 -7.778175
vt 15.250000 -7.778175
vt 2.250000 7.778175
vt 15.250000 7.778175
vt 15.250000 7.778175
vt 2.250000 7.778175
vt 15.250000 -7.778175
vt 2.250000 -7.778175
vt 289.000000 7.778175
vt 100.000000 7.778175
vt 289.000000 -7.778175
vt 100.000000 -7.778175
vt -89.000000 7.778175
vt -89.000000 -7.778175
vt -89.000000 -7.778175
vt 100.000000 -7.778175
vt -89.000000 7.778175
vt 100.000000 7.778175
vt 289.000000 -7.778175
vt 289.000000 7.778175
vt 15.250000 7.778175
vt 2.250000 7.778175
vt 15.250000 -7.778175
vt 2.250000 -7.778175
vt 289.000000 7.778175
vt 100.000000 7.778175
vt 289.000000 -7.778175
vt 100.000000 -7.778175
vt -89.000000 7.778175
vt -89.000000 -7.778175
vt 24.000000 89.000000
vt 11.000000 89.000000
vt 24.000000 -89.000000
vt 11.000000 -89.000000
vt -6.500000 -189.000000
vt 6.500000 -189.000000
vt -6.500000 0.000000
vt 6.500000 0.000000
vt -6.500000 189.000000
vt 6.500000 189.000000
vt 11.000000 -89.000000
vt 24.000000 -89.000000
vt 11.000000 89.000000
vt 24.000000 89.000000
vt 6.500000 189.000000
vt -6.500000 189.000000
vt 6.500000 0.000000
vt -6.500000 0.000000
vt 6.500000 -189.000000
vt -6.500000 -189.000000
vt 11.000000 -89.000000
vt 200.000000 -89.000000
vt 11.000000 89.000000
vt 200.000000 89.000000
vt 389.000000 -89.000000
vt 389.000000 89.000000
vt 389.000000 89.000000
vt 200.000000 89.000000
vt 389.000000 -89.000000
vt 200.000000 -89.000000
vt 11.000000 89.000000
vt 11.000000 -89.000000
vn -0.5774 0.5773 0.5774
vn 0.5774 0.5773 0.5774
vn -0.5774 0.5774 -0.5774
vn -0.7071 0.7071 0.0000
vn -0.5774 -0.5774 0.5774
vn 0.5774 0.5774 -0.5774
vn 0.7071 0.7071 0.0000
vn 0.5774 -0.5774 0.5774
vn -0.5774 -0.5773 -0.5774
vn -0.7071 -0.7071 -0.0000
vn -0.7071 0.0000 -0.7071
vn 0.5774 -0.5773 -0.5774
vn 0.7071 -0.7071 -0.0000
vn 0.0000 -0.7071 -0.7071
vn 0.7071 0.0000 -0.7071
vn 0.7071 0.0000 0.7071
vn 0.0000 -0.7071 0.7071
vn 0.0000 0.7071 -0.7071
vn -0.7071 0.0000 0.7071
vn 0.0000 0.7071 0.7071
vn -1.0000 0.0000 0.0000
vn 0.0000 0.0000 -1.0000
vn 1.0000 0.0000 0.0000
vn 0.0000 0.0000 1.0000
vn 0.0000 1.0000 0.0000
vn 0.0000 -1.0000 -0.0000
usemtl Case
s 1
f 1/1/1 2/2/1 3/3/1
f 4/4/2 5/5/2 6/6/2
f 7/7/3 8/8/3 9/9/3
f 3/10/4 2/11/4 8/12/4
f 8/12/4 2/11/4 9/13/4
f 10/14/5 11/15/5 12/16/5
f 13/17/6 14/18/6 15/19/6
f 6/20/7 5/21/7 14/22/7
f 14/22/7 5/21/7 15/23/7
f 16/24/8 17/25/8 18/26/8
f 19/27/9 20/28/9 21/29/9
f 12/30/10 11/31/10 20/32/10
f 20/32/10 11/31/10 21/33/10
f 7/34/11 19/35/11 8/36/11
f 8/36/11 19/35/11 21/37/11
f 22/38/12 23/39/12 24/40/12
f 18/41/13 17/42/13 23/43/13
f 23/43/13 17/42/13 24/44/13
f 19/45/14 25/46/14 20/47/14
f 20/47/14 25/46/14 26/48/14
f 26/48/14 25/46/14 22/49/14
f 26/48/14 22/49/14 24/50/14
f 22/51/15 13/52/15 23/53/15
f 23/53/15 13/52/15 15/54/15
f 4/55/16 16/56/16 5/57/16
f 5/57/16 16/56/16 18/58/16
f 16/59/17 27/60/17 17/61/17
f 17/61/17 27/60/17 28/62/17
f 28/62/17 27/60/17 10/63/17
f 28/62/17 10/63/17 12/64/17
f 13/65/18 29/66/18 14/67/18
f 14/67/18 29/66/18 30/68/18
f 30/68/18 29/66/18 7/69/18
f 30/68/18 7/69/18 9/70/18
f 10/71/19 1/72/19 11/73/19
f 11/73/19 1/72/19 3/74/19
f 1/75/20 31/76/20 2/77/20
f 2/77/20 31/76/20 32/78/20
f 32/78/20 31/76/20 4/79/20
f 32/78/20 4/79/20 6/80/20
f 11/81/21 3/82/21 21/83/21
f 21/83/21 3/82/21 8/84/21
f 19/85/22 7/86/22 25/87/22
f 25/87/22 7/86/22 29/88/22
f 25/87/22 29/88/22 22/89/22
f 22/89/22 29/88/22 13/90/22
f 23/91/23 15/92/23 18/93/23
f 18/93/23 15/92/23 5/94/23
f 16/95/24 4/96/24 27/97/24
f 27/97/24 4/96/24 31/98/24
f 27/97/24 31/98/24 10/99/24
f 10/99/24 31/98/24 1/100/24
usemtl Walk
f 14/101/25 30/102/25 6/103/25
f 6/103/25 30/102/25 32/104/25
f 32/104/25 30/102/25 9/105/25
f 32/104/25 9/105/25 2/106/25
f 17/107/26 28/108/26 24/109/26
f 24/109/26 28/108/26 26/110/26
f 26/110/26 28/108/26 12/111/26
f 26/110/26 12/111/26 20/112/26
