# Blender v2.93.4 OBJ File: 'thin-short.blend'
# www.blender.org
mtllib thin-short.mtl
o thin-short
v -0.390000 0.065000 1.000000
v -0.390000 0.175000 0.890000
v -0.500000 0.065000 0.890000
v 0.390000 0.065000 1.000000
v 0.500000 0.065000 0.890000
v 0.390000 0.175000 0.890000
v -0.390000 -0.065000 1.000000
v -0.500000 -0.065000 0.890000
v -0.390000 -0.175000 0.890000
v -0.390000 0.065000 -1.000000
v -0.500000 0.065000 -0.890000
v -0.390000 0.175000 -0.890000
v 0.390000 -0.065000 1.000000
v 0.390000 -0.175000 0.890000
v 0.500000 -0.065000 0.890000
v 0.390000 0.065000 -1.000000
v 0.390000 0.175000 -0.890000
v 0.500000 0.065000 -0.890000
v -0.390000 -0.065000 -1.000000
v -0.390000 -0.175000 -0.890000
v -0.500000 -0.065000 -0.890000
v 0.390000 -0.065000 -1.000000
v 0.500000 -0.065000 -0.890000
v 0.390000 -0.175000 -0.890000
vt -7.778175 13.472194
vt -15.556349 0.000000
vt 0.000000 0.000000
vt -7.778175 13.472194
vt -15.556349 0.000000
vt 0.000000 0.000000
vt -7.778175 13.472194
vt -15.556349 0.000000
vt -0.000000 0.000000
vt 7.778175 -13.472194
vt 15.556349 0.000000
vt 0.000000 0.000000
vt 7.778175 89.000000
vt -7.778175 89.000000
vt 7.778175 -89.000000
vt -7.778175 -89.000000
vt -7.778175 13.472194
vt -15.556349 0.000000
vt 0.000000 0.000000
vt 7.778175 -13.472194
vt 15.556349 0.000000
vt 0.000000 0.000000
vt 7.778175 89.000000
vt -7.778175 89.000000
vt 7.778175 -89.000000
vt -7.778175 -89.000000
vt 7.778175 -13.472194
vt 15.556349 0.000000
vt 0.000000 0.000000
vt -7.778175 -89.000000
vt 7.778175 -89.000000
vt -7.778175 89.000000
vt 7.778175 89.000000
vt 2.250000 -7.778175
vt 15.250000 -7.778175
vt 2.250000 7.778175
vt 15.250000 7.778175
vt 7.778175 -13.472194
vt 15.556349 0.000000
vt -0.000000 -0.000000
vt 7.778175 89.000000
vt -7.778175 89.000000
vt 7.778175 -89.000000
vt -7.778175 -89.000000
vt -14.000000 -7.778175
vt 64.000000 -7.778175
vt -14.000000 7.778175
vt 64.000000 7.778175
vt 2.250000 -7.778175
vt 15.250000 -7.778175
vt 2.250000 7.778175
vt 15.250000 7.778175
vt -14.000000 -7.778175
vt 64.000000 -7.778175
vt -14.000000 7.778175
vt 64.000000 7.778175
vt 15.250000 7.778175
vt 2.250000 7.778175
vt 15.250000 -7.778175
vt 2.250000 -7.778175
vt 64.000000 7.778175
vt -14.000000 7.778175
vt 64.000000 -7.778175
vt -14.000000 -7.778175
vt 15.250000 7.778175
vt 2.250000 7.778175
vt 15.250000 -7.778175
vt 2.250000 -7.778175
vt 64.000000 7.778175
vt -14.000000 7.778175
vt 64.000000 -7.778175
vt -14.000000 -7.778175
vt 24.000000 89.000000
vt 11.000000 89.000000
vt 24.000000 -89.000000
vt 11.000000 -89.000000
vt -6.500000 -39.000000
vt 6.500000 -39.000000
vt -6.500000 39.000000
vt 6.500000 39.000000
vt 11.000000 -89.000000
vt 24.000000 -89.000000
vt 11.000000 89.000000
vt 24.000000 89.000000
vt 6.500000 39.000000
vt -6.500000 39.000000
vt 6.500000 -39.000000
vt -6.500000 -39.000000
vt 11.000000 -89.000000
vt 89.000000 -89.000000
vt 11.000000 89.000000
vt 89.000000 89.000000
vt 89.000000 89.000000
vt 11.000000 89.000000
vt 89.000000 -89.000000
vt 11.000000 -89.000000
vn -0.5774 0.5773 0.5774
vn 0.5774 0.5773 0.5774
vn -0.5773 -0.5774 0.5774
vn -0.5773 0.5774 -0.5774
vn -0.7071 0.7071 0.0000
vn 0.5773 -0.5774 0.5774
vn 0.5773 0.5774 -0.5774
vn 0.7071 0.7071 0.0000
vn -0.5774 -0.5773 -0.5774
vn -0.7071 -0.7071 -0.0000
vn -0.7071 0.0000 -0.7071
vn 0.5774 -0.5773 -0.5774
vn 0.7071 -0.7071 -0.0000
vn 0.0000 -0.7071 -0.7071
vn 0.7071 0.0000 -0.7071
vn 0.0000 0.7071 -0.7071
vn 0.7071 0.0000 0.7071
vn 0.0000 -0.7071 0.7071
vn -0.7071 0.0000 0.7071
vn 0.0000 0.7071 0.7071
vn -1.0000 0.0000 0.0000
vn 0.0000 0.0000 -1.0000
vn 1.0000 0.0000 0.0000
vn 0.0000 0.0000 1.0000
vn 0.0000 1.0000 0.0000
vn 0.0000 -1.0000 -0.0000
usemtl Case
s 1
f 1/1/1 2/2/1 3/3/1
f 4/4/2 5/5/2 6/6/2
f 7/7/3 8/8/3 9/9/3
f 10/10/4 11/11/4 12/12/4
f 3/13/5 2/14/5 11/15/5
f 11/15/5 2/14/5 12/16/5
f 13/17/6 14/18/6 15/19/6
f 16/20/7 17/21/7 18/22/7
f 6/23/8 5/24/8 17/25/8
f 17/25/8 5/24/8 18/26/8
f 19/27/9 20/28/9 21/29/9
f 21/30/10 20/31/10 8/32/10
f 8/32/10 20/31/10 9/33/10
f 10/34/11 19/35/11 11/36/11
f 11/36/11 19/35/11 21/37/11
f 22/38/12 23/39/12 24/40/12
f 15/41/13 14/42/13 23/43/13
f 23/43/13 14/42/13 24/44/13
f 19/45/14 22/46/14 20/47/14
f 20/47/14 22/46/14 24/48/14
f 22/49/15 16/50/15 23/51/15
f 23/51/15 16/50/15 18/52/15
f 16/53/16 10/54/16 17/55/16
f 17/55/16 10/54/16 12/56/16
f 4/57/17 13/58/17 5/59/17
f 5/59/17 13/58/17 15/60/17
f 13/61/18 7/62/18 14/63/18
f 14/63/18 7/62/18 9/64/18
f 7/65/19 1/66/19 8/67/19
f 8/67/19 1/66/19 3/68/19
f 1/69/20 4/70/20 2/71/20
f 2/71/20 4/70/20 6/72/20
f 8/73/21 3/74/21 21/75/21
f 21/75/21 3/74/21 11/76/21
f 19/77/22 10/78/22 22/79/22
f 22/79/22 10/78/22 16/80/22
f 23/81/23 18/82/23 15/83/23
f 15/83/23 18/82/23 5/84/23
f 13/85/24 4/86/24 7/87/24
f 7/87/24 4/86/24 1/88/24
usemtl Walk
f 17/89/25 12/90/25 6/91/25
f 6/91/25 12/90/25 2/92/25
f 14/93/26 9/94/26 24/95/26
f 24/95/26 9/94/26 20/96/26
