# Blender v2.93.4 OBJ File: 'LinearTube.blend'
# www.blender.org
mtllib LinearTube.mtl
o LinearTube
v -22.500000 -7.071067 -2.000002
v 0.000000 -7.071067 -2.000002
v -22.500000 -8.261355 -2.000003
v 0.000000 -8.261355 -2.000003
v 22.500000 -7.071067 -2.000002
v 22.500000 -8.261355 -2.000003
v -22.500000 8.261357 -1.999997
v 0.000000 8.261357 -1.999997
v -22.500000 7.071068 -1.999998
v 0.000000 7.071068 -1.999998
v 22.500000 8.261357 -1.999997
v 22.500000 7.071068 -1.999998
v 22.500000 8.481884 -0.554656
v 22.500000 8.451461 0.907095
v 22.500000 7.071067 2.500002
v 22.500000 8.170985 2.342008
v 22.500000 7.648757 3.707628
v 22.500000 6.524650 3.698505
v 22.500000 6.900229 4.963552
v 22.500000 5.776987 4.782931
v 22.500000 5.947543 6.072621
v 22.500000 4.851137 5.719831
v 22.500000 4.818891 7.002020
v 22.500000 3.775659 6.480309
v 22.500000 3.547661 7.724253
v 22.500000 2.583724 7.040907
v 22.500000 2.171470 8.217951
v 22.500000 1.312096 7.384336
v 22.500000 0.731031 8.468506
v 22.500000 -0.000002 7.500000
v 22.500000 -0.731037 8.468506
v 22.500000 -1.312100 7.384335
v 22.500000 -2.171476 8.217949
v 22.500000 -2.583728 7.040905
v 22.500000 -3.547667 7.724251
v 22.500000 -3.775663 6.480307
v 22.500000 -4.818895 7.002017
v 22.500000 -4.851141 5.719829
v 22.500000 -5.947547 6.072617
v 22.500000 -5.776989 4.782927
v 22.500000 -6.900231 4.963548
v 22.500000 -6.524652 3.698501
v 22.500000 -7.648760 3.707624
v 22.500000 -7.071069 2.499998
v 22.500000 -8.170987 2.342002
v 22.500000 -8.451461 0.907089
v 22.500000 -8.481884 -0.554662
v 0.000000 8.481884 -0.554656
v 0.000000 8.451461 0.907095
v 0.000000 8.170985 2.342008
v 0.000000 7.648757 3.707628
v 0.000000 6.900229 4.963552
v 0.000000 5.947543 6.072621
v 0.000000 4.818891 7.002020
v 0.000000 3.547661 7.724253
v 0.000000 2.171470 8.217951
v 0.000000 0.731031 8.468506
v 0.000000 -0.731037 8.468506
v 0.000000 -2.171476 8.217949
v 0.000000 -3.547667 7.724251
v 0.000000 -4.818895 7.002017
v 0.000000 -5.947547 6.072617
v 0.000000 -6.900231 4.963548
v 0.000000 -7.648760 3.707624
v 0.000000 -8.170987 2.342002
v 0.000000 -8.451461 0.907089
v 0.000000 -8.481884 -0.554662
v -22.500000 -8.481884 -0.554662
v -22.500000 8.481884 -0.554656
v -22.500000 8.451461 0.907095
v -22.500000 8.170985 2.342008
v -22.500000 7.648757 3.707628
v -22.500000 6.900229 4.963552
v -22.500000 5.947543 6.072621
v -22.500000 4.818891 7.002020
v -22.500000 3.547661 7.724253
v -22.500000 2.171470 8.217951
v -22.500000 0.731031 8.468506
v -22.500000 -0.731037 8.468506
v -22.500000 -2.171476 8.217949
v -22.500000 -3.547667 7.724251
v -22.500000 -4.818895 7.002017
v -22.500000 -5.947547 6.072617
v -22.500000 -6.900231 4.963548
v -22.500000 -7.648760 3.707624
v -22.500000 -8.170987 2.342002
v -22.500000 -8.451461 0.907089
v 0.000000 -7.071069 2.499998
v -22.500000 -7.071069 2.499998
v -22.500000 7.071067 2.500002
v -22.500000 6.524650 3.698505
v -22.500000 5.776987 4.782931
v -22.500000 4.851137 5.719831
v -22.500000 3.775659 6.480309
v -22.500000 2.583724 7.040907
v -22.500000 1.312096 7.384336
v -22.500000 -0.000002 7.500000
v -22.500000 -1.312100 7.384335
v -22.500000 -2.583728 7.040905
v -22.500000 -3.775663 6.480307
v -22.500000 -4.851141 5.719829
v -22.500000 -5.776989 4.782927
v -22.500000 -6.524652 3.698501
v 0.000000 7.071067 2.500002
v 0.000000 6.524650 3.698505
v 0.000000 5.776987 4.782931
v 0.000000 4.851137 5.719831
v 0.000000 3.775659 6.480309
v 0.000000 2.583724 7.040907
v 0.000000 1.312096 7.384336
v 0.000000 -0.000002 7.500000
v 0.000000 -1.312100 7.384335
v 0.000000 -2.583728 7.040905
v 0.000000 -3.775663 6.480307
v 0.000000 -4.851141 5.719829
v 0.000000 -5.776989 4.782927
v 0.000000 -6.524652 3.698501
vt -2250.000000 -1537.069824
vt -0.000000 -1537.069824
vt -2250.000000 -1390.682251
vt 0.000000 -1390.682251
vt -2250.000000 -1244.294678
vt 0.000000 -1244.294678
vt -2250.000000 -1097.907104
vt 0.000000 -1097.907104
vt -2250.000000 -951.519470
vt 0.000000 -951.519470
vt -2250.000000 -805.131836
vt 0.000000 -805.131836
vt -2250.000000 -658.744202
vt 0.000000 -658.744202
vt -2250.000000 -512.356628
vt 0.000000 -512.356628
vt -2250.000000 -365.969025
vt 0.000000 -365.969025
vt -2250.000000 -219.581406
vt 0.000000 -219.581406
vt -2250.000000 -73.193802
vt 0.000000 -73.193802
vt -2250.000000 73.193802
vt 0.000000 73.193802
vt -2250.000000 219.581406
vt 0.000000 219.581406
vt -2250.000000 365.969025
vt 0.000000 365.969025
vt -2250.000000 512.356628
vt 0.000000 512.356628
vt -2250.000000 658.744202
vt 0.000000 658.744202
vt -2250.000000 805.131836
vt 0.000000 805.131836
vt -2250.000000 951.519470
vt 0.000000 951.519470
vt -2250.000000 1097.907104
vt 0.000000 1097.907104
vt -2250.000000 1244.294678
vt 0.000000 1244.294678
vt -2250.000000 1390.682251
vt 0.000000 1390.682251
vt -2250.000000 1537.069824
vt -0.000000 1537.069824
vt 2250.000000 1390.682251
vt 2250.000000 1537.069824
vt 2250.000000 -1537.069824
vt 2250.000000 -1390.682251
vt 2250.000000 -1244.294678
vt 2250.000000 -1097.907104
vt 2250.000000 -951.519470
vt 2250.000000 -805.131836
vt 2250.000000 -658.744202
vt 2250.000000 -512.356628
vt 2250.000000 -365.969025
vt 2250.000000 -219.581406
vt 2250.000000 -73.193802
vt 2250.000000 73.193802
vt 2250.000000 219.581406
vt 2250.000000 365.969025
vt 2250.000000 512.356628
vt 2250.000000 658.744202
vt 2250.000000 805.131836
vt 2250.000000 951.519470
vt 2250.000000 1097.907104
vt 2250.000000 1244.294678
vt -0.000000 923.219543
vt 0.000000 791.331055
vt 2250.000000 791.331055
vt 2250.000000 923.219543
vt -0.000000 -923.219543
vt 2250.000000 -923.219543
vt 0.000000 -791.331055
vt 2250.000000 -791.331055
vt 0.000000 -659.442566
vt 2250.000000 -659.442566
vt 0.000000 -527.554016
vt 2250.000000 -527.554016
vt 0.000000 -395.665527
vt 2250.000000 -395.665527
vt 0.000000 -263.777008
vt 2250.000000 -263.777008
vt 0.000000 -131.888504
vt 2250.000000 -131.888504
vt 0.000000 -0.000000
vt 2250.000000 -0.000000
vt 0.000000 131.888504
vt 2250.000000 131.888504
vt 0.000000 263.777008
vt 2250.000000 263.777008
vt 0.000000 395.665527
vt 2250.000000 395.665527
vt 0.000000 527.554016
vt 2250.000000 527.554016
vt 0.000000 659.442566
vt 2250.000000 659.442566
vt -2250.000000 -923.219543
vt -2250.000000 -791.331055
vt -2250.000000 -659.442566
vt -2250.000000 -527.554016
vt -2250.000000 -395.665527
vt -2250.000000 -263.777008
vt -2250.000000 -131.888504
vt -2250.000000 0.000000
vt -2250.000000 131.888504
vt -2250.000000 263.777008
vt -2250.000000 395.665527
vt -2250.000000 527.554016
vt -2250.000000 659.442566
vt -2250.000000 791.331055
vt -2250.000000 923.219543
vt 500.000000 2250.000000
vt 50.000000 2250.000000
vt 500.000000 0.000000
vt 50.000000 0.000000
vt 500.000000 -2250.000000
vt 50.000000 -2250.000000
vt 0.000000 -2250.000000
vt 450.000000 -2250.000000
vt 0.000000 0.000000
vt 450.000000 0.000000
vt 0.000000 2250.000000
vt 450.000000 2250.000000
vt 2250.000000 -707.106750
vt -0.000000 -707.106750
vt 2250.000000 -826.135559
vt -0.000000 -826.135559
vt -2250.000000 -707.106750
vt -2250.000000 -826.135559
vt 2250.000000 826.135559
vt -0.000000 826.135559
vt 2250.000000 707.106750
vt -0.000000 707.106750
vt -2250.000000 826.135559
vt -2250.000000 707.106750
vt -200.000000 -826.135559
vt -55.465950 -848.188354
vt -200.000000 -707.106750
vt 90.709160 -845.146057
vt 250.000000 -707.106750
vt 234.200470 -817.098633
vt 370.762573 -764.875854
vt 369.850281 -652.465149
vt 496.355011 -690.022949
vt 478.292877 -577.698792
vt 607.261902 -594.754517
vt 571.982971 -485.113892
vt 700.201904 -481.889252
vt 648.030762 -377.566071
vt 772.425232 -354.766449
vt 704.090637 -258.372589
vt 821.795044 -217.147263
vt 738.433472 -131.209808
vt 846.850586 -73.103378
vt 750.000000 -0.000000
vt 846.850586 73.103378
vt 738.433472 131.209808
vt 821.795044 217.147263
vt 704.090637 258.372589
vt 772.425232 354.766449
vt 648.030762 377.566071
vt 700.201904 481.889252
vt 571.982971 485.113892
vt 607.261902 594.754517
vt 478.292877 577.698792
vt 496.355011 690.022949
vt 369.850281 652.465149
vt 370.762573 764.875854
vt 250.000000 707.106750
vt 234.200470 817.098633
vt 90.709160 845.146057
vt -200.000000 707.106750
vt -55.465950 848.188354
vt -200.000000 826.135559
vt 200.000000 -826.135559
vt 200.000000 -707.106750
vt 55.465950 -848.188354
vt -90.709160 -845.146057
vt -250.000000 -707.106750
vt -234.200470 -817.098633
vt -370.762573 -764.875854
vt -369.850281 -652.465149
vt -496.355011 -690.022949
vt -478.292877 -577.698792
vt -607.261902 -594.754517
vt -571.982971 -485.113892
vt -700.201904 -481.889252
vt -648.030762 -377.566071
vt -772.425232 -354.766449
vt -704.090637 -258.372589
vt -821.795044 -217.147263
vt -738.433472 -131.209808
vt -846.850586 -73.103378
vt -750.000000 0.000000
vt -846.850586 73.103378
vt -738.433472 131.209808
vt -821.795044 217.147263
vt -704.090637 258.372589
vt -772.425232 354.766449
vt -648.030762 377.566071
vt -700.201904 481.889252
vt -571.982971 485.113892
vt -607.261902 594.754517
vt -478.292877 577.698792
vt -496.355011 690.022949
vt -369.850281 652.465149
vt -370.762573 764.875854
vt -250.000000 707.106750
vt -234.200470 817.098633
vt -90.709160 845.146057
vt 200.000000 707.106750
vt 55.465950 848.188354
vt 200.000000 826.135559
vn -0.0000 0.9719 -0.2353
vn 0.0000 0.9979 -0.0653
vn 0.0000 0.9943 0.1067
vn 0.0000 0.9613 0.2755
vn 0.0000 0.8999 0.4362
vn 0.0000 0.8118 0.5839
vn 0.0000 0.6997 0.7144
vn 0.0000 0.5669 0.8238
vn 0.0000 0.4174 0.9087
vn 0.0000 0.2555 0.9668
vn 0.0000 0.0860 0.9963
vn 0.0000 -0.0860 0.9963
vn 0.0000 -0.2555 0.9668
vn 0.0000 -0.4174 0.9087
vn 0.0000 -0.5669 0.8238
vn 0.0000 -0.6997 0.7144
vn 0.0000 -0.8118 0.5839
vn 0.0000 -0.8999 0.4362
vn 0.0000 -0.9613 0.2755
vn 0.0000 -0.9943 0.1067
vn 0.0000 -0.9979 -0.0653
vn -0.0000 -0.9719 -0.2353
vn 0.0000 0.9428 -0.3333
vn 0.0000 0.8700 -0.4931
vn -0.0000 -0.9428 -0.3333
vn 0.0000 -0.8700 -0.4931
vn 0.0000 -0.7703 -0.6377
vn 0.0000 -0.6468 -0.7626
vn 0.0000 -0.5034 -0.8640
vn 0.0000 -0.3445 -0.9388
vn 0.0000 -0.1749 -0.9846
vn 0.0000 0.0000 -1.0000
vn 0.0000 0.1749 -0.9846
vn 0.0000 0.3445 -0.9388
vn 0.0000 0.5034 -0.8640
vn 0.0000 0.6468 -0.7626
vn 0.0000 0.7703 -0.6377
vn 0.0000 1.0000 0.0000
vn 0.0000 -1.0000 -0.0000
vn 1.0000 0.0000 0.0000
vn -1.0000 0.0000 0.0000
usemtl Hull
s 1
f 11/1/1 8/2/1 13/3/2
f 13/3/2 8/2/1 48/4/2
f 13/3/2 48/4/2 14/5/3
f 14/5/3 48/4/2 49/6/3
f 14/5/3 49/6/3 16/7/4
f 16/7/4 49/6/3 50/8/4
f 16/7/4 50/8/4 17/9/5
f 17/9/5 50/8/4 51/10/5
f 17/9/5 51/10/5 19/11/6
f 19/11/6 51/10/5 52/12/6
f 19/11/6 52/12/6 21/13/7
f 21/13/7 52/12/6 53/14/7
f 21/13/7 53/14/7 23/15/8
f 23/15/8 53/14/7 54/16/8
f 23/15/8 54/16/8 25/17/9
f 25/17/9 54/16/8 55/18/9
f 25/17/9 55/18/9 27/19/10
f 27/19/10 55/18/9 56/20/10
f 27/19/10 56/20/10 29/21/11
f 29/21/11 56/20/10 57/22/11
f 29/21/11 57/22/11 31/23/12
f 31/23/12 57/22/11 58/24/12
f 31/23/12 58/24/12 33/25/13
f 33/25/13 58/24/12 59/26/13
f 33/25/13 59/26/13 35/27/14
f 35/27/14 59/26/13 60/28/14
f 35/27/14 60/28/14 37/29/15
f 37/29/15 60/28/14 61/30/15
f 37/29/15 61/30/15 39/31/16
f 39/31/16 61/30/15 62/32/16
f 39/31/16 62/32/16 41/33/17
f 41/33/17 62/32/16 63/34/17
f 41/33/17 63/34/17 43/35/18
f 43/35/18 63/34/17 64/36/18
f 43/35/18 64/36/18 45/37/19
f 45/37/19 64/36/18 65/38/19
f 45/37/19 65/38/19 46/39/20
f 46/39/20 65/38/19 66/40/20
f 46/39/20 66/40/20 47/41/21
f 47/41/21 66/40/20 67/42/21
f 47/41/21 67/42/21 6/43/22
f 6/43/22 67/42/21 4/44/22
f 4/44/22 67/42/21 68/45/21
f 4/44/22 68/45/21 3/46/22
f 8/2/1 7/47/1 48/4/2
f 48/4/2 7/47/1 69/48/2
f 48/4/2 69/48/2 49/6/3
f 49/6/3 69/48/2 70/49/3
f 49/6/3 70/49/3 50/8/4
f 50/8/4 70/49/3 71/50/4
f 50/8/4 71/50/4 51/10/5
f 51/10/5 71/50/4 72/51/5
f 51/10/5 72/51/5 52/12/6
f 52/12/6 72/51/5 73/52/6
f 52/12/6 73/52/6 53/14/7
f 53/14/7 73/52/6 74/53/7
f 53/14/7 74/53/7 54/16/8
f 54/16/8 74/53/7 75/54/8
f 54/16/8 75/54/8 55/18/9
f 55/18/9 75/54/8 76/55/9
f 55/18/9 76/55/9 56/20/10
f 56/20/10 76/55/9 77/56/10
f 56/20/10 77/56/10 57/22/11
f 57/22/11 77/56/10 78/57/11
f 57/22/11 78/57/11 58/24/12
f 58/24/12 78/57/11 79/58/12
f 58/24/12 79/58/12 59/26/13
f 59/26/13 79/58/12 80/59/13
f 59/26/13 80/59/13 60/28/14
f 60/28/14 80/59/13 81/60/14
f 60/28/14 81/60/14 61/30/15
f 61/30/15 81/60/14 82/61/15
f 61/30/15 82/61/15 62/32/16
f 62/32/16 82/61/15 83/62/16
f 62/32/16 83/62/16 63/34/17
f 63/34/17 83/62/16 84/63/17
f 63/34/17 84/63/17 64/36/18
f 64/36/18 84/63/17 85/64/18
f 64/36/18 85/64/18 65/38/19
f 65/38/19 85/64/18 86/65/19
f 65/38/19 86/65/19 66/40/20
f 66/40/20 86/65/19 87/66/20
f 66/40/20 87/66/20 67/42/21
f 67/42/21 87/66/20 68/45/21
usemtl Inner1
f 88/67/23 117/68/24 42/69/24
f 88/67/23 42/69/24 44/70/23
f 104/71/25 15/72/25 105/73/26
f 105/73/26 15/72/25 18/74/26
f 105/73/26 18/74/26 106/75/27
f 106/75/27 18/74/26 20/76/27
f 106/75/27 20/76/27 107/77/28
f 107/77/28 20/76/27 22/78/28
f 107/77/28 22/78/28 108/79/29
f 108/79/29 22/78/28 24/80/29
f 108/79/29 24/80/29 109/81/30
f 109/81/30 24/80/29 26/82/30
f 109/81/30 26/82/30 110/83/31
f 110/83/31 26/82/30 28/84/31
f 110/83/31 28/84/31 111/85/32
f 111/85/32 28/84/31 30/86/32
f 111/85/32 30/86/32 112/87/33
f 112/87/33 30/86/32 32/88/33
f 112/87/33 32/88/33 113/89/34
f 113/89/34 32/88/33 34/90/34
f 113/89/34 34/90/34 114/91/35
f 114/91/35 34/90/34 36/92/35
f 114/91/35 36/92/35 115/93/36
f 115/93/36 36/92/35 38/94/36
f 115/93/36 38/94/36 116/95/37
f 116/95/37 38/94/36 40/96/37
f 116/95/37 40/96/37 117/68/24
f 117/68/24 40/96/37 42/69/24
usemtl Inner2
f 90/97/25 104/71/25 91/98/26
f 91/98/26 104/71/25 105/73/26
f 91/98/26 105/73/26 92/99/27
f 92/99/27 105/73/26 106/75/27
f 92/99/27 106/75/27 93/100/28
f 93/100/28 106/75/27 107/77/28
f 93/100/28 107/77/28 94/101/29
f 94/101/29 107/77/28 108/79/29
f 94/101/29 108/79/29 95/102/30
f 95/102/30 108/79/29 109/81/30
f 95/102/30 109/81/30 96/103/31
f 96/103/31 109/81/30 110/83/31
f 96/103/31 110/83/31 97/104/32
f 97/104/32 110/83/31 111/85/32
f 97/104/32 111/85/32 98/105/33
f 98/105/33 111/85/32 112/87/33
f 98/105/33 112/87/33 99/106/34
f 99/106/34 112/87/33 113/89/34
f 99/106/34 113/89/34 100/107/35
f 100/107/35 113/89/34 114/91/35
f 100/107/35 114/91/35 101/108/36
f 101/108/36 114/91/35 115/93/36
f 101/108/36 115/93/36 102/109/37
f 102/109/37 115/93/36 116/95/37
f 102/109/37 116/95/37 103/110/24
f 103/110/24 116/95/37 117/68/24
f 103/110/24 117/68/24 89/111/23
f 89/111/23 117/68/24 88/67/23
usemtl Walkway
f 44/112/38 5/113/38 88/114/38
f 88/114/38 5/113/38 2/115/38
f 88/114/38 2/115/38 89/116/38
f 89/116/38 2/115/38 1/117/38
f 90/118/39 9/119/39 104/120/39
f 104/120/39 9/119/39 10/121/39
f 104/120/39 10/121/39 15/122/39
f 15/122/39 10/121/39 12/123/39
usemtl Cut
f 1/124/32 2/125/32 3/126/32
f 3/126/32 2/125/32 4/127/32
f 4/127/32 2/125/32 5/128/32
f 4/127/32 5/128/32 6/129/32
f 7/130/32 8/131/32 9/132/32
f 9/132/32 8/131/32 10/133/32
f 10/133/32 8/131/32 11/134/32
f 10/133/32 11/134/32 12/135/32
f 11/136/40 13/137/40 12/138/40
f 12/138/40 13/137/40 14/139/40
f 12/138/40 14/139/40 15/140/40
f 15/140/40 14/139/40 16/141/40
f 15/140/40 16/141/40 17/142/40
f 15/140/40 17/142/40 18/143/40
f 18/143/40 17/142/40 19/144/40
f 18/143/40 19/144/40 20/145/40
f 20/145/40 19/144/40 21/146/40
f 20/145/40 21/146/40 22/147/40
f 22/147/40 21/146/40 23/148/40
f 22/147/40 23/148/40 24/149/40
f 24/149/40 23/148/40 25/150/40
f 24/149/40 25/150/40 26/151/40
f 26/151/40 25/150/40 27/152/40
f 26/151/40 27/152/40 28/153/40
f 28/153/40 27/152/40 29/154/40
f 28/153/40 29/154/40 30/155/40
f 30/155/40 29/154/40 31/156/40
f 30/155/40 31/156/40 32/157/40
f 32/157/40 31/156/40 33/158/40
f 32/157/40 33/158/40 34/159/40
f 34/159/40 33/158/40 35/160/40
f 34/159/40 35/160/40 36/161/40
f 36/161/40 35/160/40 37/162/40
f 36/161/40 37/162/40 38/163/40
f 38/163/40 37/162/40 39/164/40
f 38/163/40 39/164/40 40/165/40
f 40/165/40 39/164/40 41/166/40
f 40/165/40 41/166/40 42/167/40
f 42/167/40 41/166/40 43/168/40
f 42/167/40 43/168/40 44/169/40
f 44/169/40 43/168/40 45/170/40
f 44/169/40 45/170/40 46/171/40
f 44/169/40 46/171/40 5/172/40
f 5/172/40 46/171/40 47/173/40
f 5/172/40 47/173/40 6/174/40
f 7/175/41 9/176/41 69/177/41
f 69/177/41 9/176/41 70/178/41
f 70/178/41 9/176/41 90/179/41
f 70/178/41 90/179/41 71/180/41
f 71/180/41 90/179/41 72/181/41
f 72/181/41 90/179/41 91/182/41
f 72/181/41 91/182/41 73/183/41
f 73/183/41 91/182/41 92/184/41
f 73/183/41 92/184/41 74/185/41
f 74/185/41 92/184/41 93/186/41
f 74/185/41 93/186/41 75/187/41
f 75/187/41 93/186/41 94/188/41
f 75/187/41 94/188/41 76/189/41
f 76/189/41 94/188/41 95/190/41
f 76/189/41 95/190/41 77/191/41
f 77/191/41 95/190/41 96/192/41
f 77/191/41 96/192/41 78/193/41
f 78/193/41 96/192/41 97/194/41
f 78/193/41 97/194/41 79/195/41
f 79/195/41 97/194/41 98/196/41
f 79/195/41 98/196/41 80/197/41
f 80/197/41 98/196/41 99/198/41
f 80/197/41 99/198/41 81/199/41
f 81/199/41 99/198/41 100/200/41
f 81/199/41 100/200/41 82/201/41
f 82/201/41 100/200/41 101/202/41
f 82/201/41 101/202/41 83/203/41
f 83/203/41 101/202/41 102/204/41
f 83/203/41 102/204/41 84/205/41
f 84/205/41 102/204/41 103/206/41
f 84/205/41 103/206/41 85/207/41
f 85/207/41 103/206/41 89/208/41
f 85/207/41 89/208/41 86/209/41
f 86/209/41 89/208/41 87/210/41
f 87/210/41 89/208/41 1/211/41
f 87/210/41 1/211/41 68/212/41
f 68/212/41 1/211/41 3/213/41
