# Blender v2.93.4 OBJ File: 'QuarterRing-Short.blend'
# www.blender.org
mtllib QuarterRing-Short.mtl
o QuarterRing-Short
v -14.500000 -0.378071 6.989783
v -14.753595 -0.382295 6.735565
v -15.000000 0.122165 6.998934
v -15.000000 -0.386451 6.488502
v -14.500000 -2.383113 6.581851
v -15.000000 -2.847159 6.394817
v -14.753595 -2.279895 6.349493
v -15.000000 -2.179534 6.123694
v -16.000000 -0.386451 6.488502
v -16.240492 -0.382394 6.729636
v -16.000000 0.122165 6.998934
v -16.500000 -0.378071 6.989783
v -16.000000 0.139616 7.998782
v -16.500000 -0.360581 7.991870
v -16.500000 -2.383113 6.581851
v -16.240492 -2.277487 6.344074
v -16.000000 -2.847159 6.394817
v -16.000000 -2.179534 6.123694
v -16.500000 -0.787281 6.955586
v -16.000000 -0.843274 6.445066
v -16.500000 -1.193781 6.897455
v -16.000000 -1.295894 6.369511
v -16.500000 -1.596173 6.815588
v -16.000000 -1.742055 6.262208
v -16.500000 -1.993073 6.710266
v -16.000000 -3.253895 7.308363
v -16.500000 -2.790761 7.497443
v -15.000000 -0.843274 6.445066
v -14.500000 -0.787281 6.955586
v -14.500000 -1.193781 6.897455
v -15.000000 -1.295894 6.369511
v -14.500000 -1.596173 6.815588
v -15.000000 -1.742055 6.262208
v -14.500000 -1.993073 6.710266
v -15.000000 -3.253895 7.308363
v -14.500000 -2.790761 7.497443
v -15.000000 0.139616 7.998782
v -14.500000 -0.360581 7.991870
v -14.500000 -2.318940 7.656534
v -14.500000 -1.838135 7.785965
v -14.500000 -1.350211 7.885234
v -14.500000 -0.857056 7.953959
v -16.500000 -2.318940 7.656534
v -16.500000 -1.838135 7.785965
v -16.500000 -1.350211 7.885234
v -16.500000 -0.857056 7.953959
vt -35.083557 61.503429
vt -17.287685 30.312796
vt 35.640812 62.626194
vt 0.000000 0.000000
vt 64.602112 28.805622
vt 0.000000 0.000000
vt 61.618618 -6.980511
vt 58.725742 -41.756378
vt -35.083557 -61.503429
vt -18.210859 -31.918135
vt -70.724365 1.122766
vt 0.000000 0.000000
vt -36.931892 127.514633
vt -35.697727 27.522249
vt 33.792702 126.823410
vt 35.029633 26.607075
vt -150.000000 -36.028835
vt -50.000000 -36.028835
vt -150.000000 36.028835
vt -50.000000 36.028835
vt 0.000000 0.000000
vt 3.053004 -36.620785
vt 64.602112 -28.805622
vt 5.876373 -70.561996
vt 1.344788 -538.953979
vt 35.355339 -537.112732
vt -35.355339 -540.793274
vt -35.355339 -501.190521
vt 35.355339 -489.449615
vt -35.355339 -461.587830
vt 35.355339 -441.786469
vt -35.355339 -421.985107
vt 35.355339 -394.123322
vt -35.355339 -382.382416
vt 35.355339 -346.460205
vt 1.344788 -344.618988
vt -35.355339 -342.779694
vt 36.028835 150.000000
vt -36.028835 150.000000
vt 36.028835 50.000000
vt -36.028835 50.000000
vt 48.740322 37.081837
vt -19.176493 56.823986
vt 18.710917 -58.302834
vt -49.273155 -38.774315
vt -35.355339 -489.449615
vt -35.355339 -537.112732
vt 35.355339 -501.190521
vt -0.508379 -538.997498
vt 35.355339 -540.793274
vt 35.355339 -461.587830
vt -35.355339 -441.786469
vt 35.355339 -421.985107
vt -35.355339 -394.123322
vt 35.355339 -382.382416
vt -35.355339 -346.460205
vt -0.508379 -344.575439
vt 35.355339 -342.779694
vt -48.740322 37.081837
vt -18.710917 -58.302834
vt 19.176493 56.823986
vt 49.273155 -38.774315
vt 36.931892 127.514633
vt -33.792702 126.823410
vt 35.697727 27.522249
vt -35.029633 26.607077
vt 0.000000 50.000000
vt 100.000000 50.000000
vt 0.000000 150.000000
vt 100.000000 150.000000
vt 38.717037 -82.597435
vt 25.875675 -43.593365
vt -52.842113 -123.362198
vt -68.751221 -76.180084
vt 15.343491 -3.903427
vt -81.694321 -28.099649
vt 7.156728 36.335796
vt -91.621262 20.692844
vt 1.343560 76.985832
vt -98.493607 70.008385
vt -2.076008 117.906792
vt -102.284714 119.655937
vt 50.000000 -517.219666
vt 150.000000 -517.219666
vt 50.000000 -471.321838
vt 150.000000 -471.321838
vt 50.000000 -425.424011
vt 150.000000 -425.424011
vt 50.000000 -379.526184
vt 150.000000 -379.526184
vt 50.000000 -333.628326
vt 150.000000 -333.628326
vt -50.000000 -349.065857
vt -150.000000 -349.065857
vt -0.000000 -399.098450
vt -200.000000 -399.098450
vt -0.000000 -448.898590
vt -200.000000 -448.898590
vt -0.000000 -498.698700
vt -200.000000 -498.698700
vt -0.000000 -548.498840
vt -200.000000 -548.498840
vt -0.000000 -598.298950
vt -200.000000 -598.298950
vt -0.000000 -648.099121
vt -200.000000 -648.099121
vt -50.000000 -698.131714
vt -150.000000 -698.131714
vt 50.000000 50.000000
vt 150.000000 50.000000
vt 50.000000 150.000000
vt 150.000000 150.000000
vt -38.717037 -82.597435
vt 52.842113 -123.362198
vt -25.875675 -43.593365
vt 68.751221 -76.180084
vt -15.343491 -3.903427
vt 81.694321 -28.099649
vt -7.156728 36.335796
vt 91.621262 20.692844
vt -1.343560 76.985832
vt 98.493607 70.008385
vt 2.076008 117.906792
vt 102.284714 119.655937
vn 0.5711 0.5815 -0.5794
vn 0.5711 -0.3089 -0.7605
vn -0.5711 0.5815 -0.5794
vn -0.7071 0.7070 -0.0123
vn 0.0000 0.7084 -0.7058
vn -0.5711 -0.3089 -0.7605
vn -0.7071 0.0401 -0.7060
vn -0.7071 0.0420 -0.7059
vn -0.7071 0.0382 -0.7061
vn -0.7071 0.0796 -0.7026
vn -0.7071 0.0917 -0.7011
vn -0.7071 0.1206 -0.6968
vn -0.7071 0.1410 -0.6929
vn -0.7070 0.1613 -0.6885
vn -0.7071 0.1895 -0.6812
vn -0.7072 0.2013 -0.6778
vn -0.7071 0.2371 -0.6662
vn -0.7071 0.2389 -0.6655
vn -0.7071 0.2407 -0.6649
vn 0.0000 -0.3763 -0.9265
vn -0.7071 -0.6460 -0.2876
vn 0.7071 0.0917 -0.7011
vn 0.7071 0.0421 -0.7059
vn 0.7071 0.0795 -0.7026
vn 0.7071 0.0401 -0.7060
vn 0.7071 0.0382 -0.7061
vn 0.7071 0.1206 -0.6968
vn 0.7071 0.1410 -0.6929
vn 0.7070 0.1613 -0.6885
vn 0.7071 0.1895 -0.6813
vn 0.7072 0.2013 -0.6778
vn 0.7071 0.2371 -0.6662
vn 0.7071 0.2390 -0.6655
vn 0.7071 0.2407 -0.6649
vn 0.7071 -0.6460 -0.2876
vn 0.7071 0.7070 -0.0123
vn 0.0000 -0.9135 -0.4067
vn 1.0000 0.0000 0.0000
vn -0.0000 0.0594 -0.9982
vn 0.0000 0.1297 -0.9915
vn 0.0000 0.1994 -0.9799
vn 0.0000 0.2680 -0.9634
vn 0.0000 0.3353 -0.9421
vn -0.0000 -0.4067 0.9136
vn -0.0000 -0.3488 0.9372
vn -0.0000 -0.3489 0.9372
vn 0.0000 -0.2899 0.9571
vn 0.0000 -0.2298 0.9732
vn 0.0000 -0.1688 0.9857
vn 0.0000 -0.1071 0.9942
vn -0.0000 -0.0450 0.9990
vn -0.0000 0.0174 0.9998
vn 0.0000 0.9998 -0.0175
vn -1.0000 0.0000 0.0000
usemtl Ring
s 1
f 1/1/1 2/2/1 3/3/1
f 3/3/1 2/2/1 4/4/1
f 5/5/2 6/6/2 7/7/2
f 7/7/2 6/6/2 8/8/2
f 9/9/3 10/10/3 11/11/3
f 11/11/3 10/10/3 12/12/3
f 13/13/4 11/14/4 14/15/4
f 14/15/4 11/14/4 12/16/4
f 4/17/5 9/18/5 3/19/5
f 3/19/5 9/18/5 11/20/5
f 15/21/6 16/22/6 17/23/6
f 17/23/6 16/22/6 18/24/6
f 10/25/7 9/26/8 12/27/9
f 12/27/9 9/26/8 19/28/10
f 19/28/10 9/26/8 20/29/11
f 19/28/10 20/29/11 21/30/12
f 21/30/12 20/29/11 22/31/13
f 21/30/12 22/31/13 23/32/14
f 23/32/14 22/31/13 24/33/15
f 23/32/14 24/33/15 25/34/16
f 25/34/16 24/33/15 18/35/17
f 25/34/16 18/35/17 16/36/18
f 16/36/18 15/37/19 25/34/16
f 8/38/20 6/39/20 18/40/20
f 18/40/20 6/39/20 17/41/20
f 26/42/21 27/43/21 17/44/21
f 17/44/21 27/43/21 15/45/21
f 28/46/22 4/47/23 29/48/24
f 29/48/24 4/47/23 2/49/25
f 29/48/24 2/49/25 1/50/26
f 29/48/24 30/51/27 28/46/22
f 28/46/22 30/51/27 31/52/28
f 31/52/28 30/51/27 32/53/29
f 31/52/28 32/53/29 33/54/30
f 33/54/30 32/53/29 34/55/31
f 33/54/30 34/55/31 8/56/32
f 8/56/32 34/55/31 7/57/33
f 7/57/33 34/55/31 5/58/34
f 35/59/35 6/60/35 36/61/35
f 36/61/35 6/60/35 5/62/35
f 37/63/36 38/64/36 3/65/36
f 3/65/36 38/64/36 1/66/36
f 26/67/37 17/68/37 35/69/37
f 35/69/37 17/68/37 6/70/37
f 5/71/38 34/72/38 36/73/38
f 36/73/38 34/72/38 39/74/38
f 39/74/38 34/72/38 32/75/38
f 39/74/38 32/75/38 40/76/38
f 40/76/38 32/75/38 30/77/38
f 40/76/38 30/77/38 41/78/38
f 41/78/38 30/77/38 29/79/38
f 41/78/38 29/79/38 42/80/38
f 42/80/38 29/79/38 1/81/38
f 42/80/38 1/81/38 38/82/38
f 9/83/39 4/84/39 20/85/40
f 20/85/40 4/84/39 28/86/40
f 20/85/40 28/86/40 22/87/41
f 22/87/41 28/86/40 31/88/41
f 22/87/41 31/88/41 24/89/42
f 24/89/42 31/88/41 33/90/42
f 24/89/42 33/90/42 18/91/43
f 18/91/43 33/90/42 8/92/43
f 26/93/44 35/94/44 27/95/45
f 27/95/45 35/94/44 36/96/46
f 27/95/45 36/96/46 43/97/47
f 43/97/47 36/96/46 39/98/47
f 43/97/47 39/98/47 44/99/48
f 44/99/48 39/98/47 40/100/48
f 44/99/48 40/100/48 45/101/49
f 45/101/49 40/100/48 41/102/49
f 45/101/49 41/102/49 46/103/50
f 46/103/50 41/102/49 42/104/50
f 46/103/50 42/104/50 14/105/51
f 14/105/51 42/104/50 38/106/51
f 14/105/51 38/106/51 13/107/52
f 13/107/52 38/106/51 37/108/52
f 11/109/53 13/110/53 3/111/53
f 3/111/53 13/110/53 37/112/53
f 15/113/54 27/114/54 25/115/54
f 25/115/54 27/114/54 43/116/54
f 25/115/54 43/116/54 23/117/54
f 23/117/54 43/116/54 44/118/54
f 23/117/54 44/118/54 21/119/54
f 21/119/54 44/118/54 45/120/54
f 21/119/54 45/120/54 19/121/54
f 19/121/54 45/120/54 46/122/54
f 19/121/54 46/122/54 12/123/54
f 12/123/54 46/122/54 14/124/54
