# Blender v2.93.4 OBJ File: 'QuarterRing-Long.blend'
# www.blender.org
mtllib QuarterRing-Long.mtl
o QuarterRing-Long
v -14.500000 -0.378071 6.989783
v -15.000000 -0.386451 6.488502
v -15.000000 0.122165 6.998934
v -14.500000 -4.941444 4.958036
v -15.000000 -5.282969 4.592411
v -15.000000 -4.563313 4.628841
v -16.000000 -0.386451 6.488502
v -16.240492 -0.382394 6.729636
v -16.000000 0.122165 6.998934
v -16.500000 -0.378071 6.989783
v -16.000000 0.139616 7.998782
v -16.500000 -0.360581 7.991870
v -16.500000 -4.941444 4.958036
v -16.240492 -4.745225 4.787177
v -16.000000 -5.282969 4.592411
v -16.000000 -4.563313 4.628841
v -16.500000 -0.942913 6.936203
v -16.000000 -0.902869 6.436988
v -16.500000 -1.501561 6.837055
v -16.000000 -1.413532 6.344440
v -16.500000 -2.050344 6.692988
v -16.000000 -1.915184 6.211446
v -16.500000 -2.585657 6.504950
v -16.000000 -2.404626 6.038855
v -16.000000 -2.878739 5.827766
v -16.500000 -3.103982 6.274177
v -16.000000 -3.334500 5.579526
v -16.500000 -3.601915 6.002184
v -16.000000 -3.769004 5.295715
v -16.500000 -4.076185 5.690758
v -16.000000 -4.179481 4.978147
v -16.500000 -4.523675 5.341945
v -16.000000 -6.037679 5.248470
v -16.500000 -5.697845 5.615564
v -14.500000 -0.942913 6.936203
v -15.000000 -0.902869 6.436988
v -14.500000 -1.501561 6.837055
v -15.000000 -1.413532 6.344440
v -14.500000 -2.050344 6.692988
v -15.000000 -1.915184 6.211446
v -14.500000 -2.585657 6.504950
v -15.000000 -2.404626 6.038855
v -15.000000 -2.878739 5.827766
v -14.500000 -3.103982 6.274177
v -15.000000 -3.334500 5.579526
v -14.500000 -3.601915 6.002184
v -15.000000 -3.769004 5.295715
v -14.500000 -4.076185 5.690758
v -15.000000 -4.179481 4.978147
v -14.500000 -4.523675 5.341945
v -15.000000 -6.037679 5.248470
v -14.500000 -5.697845 5.615564
v -15.000000 0.139616 7.998782
v -14.500000 -0.360581 7.991870
v -14.500000 -5.262511 6.025444
v -16.500000 -5.262511 6.025444
v -14.500000 -4.797780 6.401665
v -16.500000 -4.797780 6.401665
v -14.500000 -4.306247 6.742124
v -16.500000 -4.306247 6.742124
v -14.500000 -3.790659 7.044920
v -16.500000 -3.790659 7.044920
v -14.500000 -3.253895 7.308363
v -16.500000 -3.253895 7.308363
v -14.500000 -2.698955 7.530979
v -16.500000 -2.698955 7.530979
v -14.500000 -2.128938 7.711525
v -16.500000 -2.128938 7.711525
v -14.500000 -1.547027 7.848993
v -16.500000 -1.547027 7.848993
v -14.500000 -0.956476 7.942616
v -16.500000 -0.956476 7.942616
vt -35.083557 61.503429
vt 0.000000 0.000000
vt 35.640812 62.626194
vt 30.439079 63.848721
vt 0.000000 0.000000
vt 71.776299 6.361663
vt -35.083557 -61.503429
vt -18.210859 -31.918135
vt -70.724365 1.122766
vt 0.000000 0.000000
vt -37.463200 170.561127
vt -36.229034 70.568733
vt 33.261398 169.869904
vt 34.498325 69.653564
vt -150.000000 -36.028835
vt -50.000000 -36.028835
vt -150.000000 36.028835
vt -50.000000 36.028835
vt 0.000000 0.000000
vt -21.451027 -29.837160
vt 30.439079 -63.848721
vt -41.337219 -57.487061
vt -35.355339 -540.793274
vt 1.344788 -538.953979
vt -35.355339 -486.066803
vt 35.355339 -537.112732
vt 35.355339 -483.204193
vt -35.355339 -431.340393
vt 35.355339 -429.295654
vt -35.355339 -376.613953
vt 35.355339 -375.387115
vt -35.355339 -321.887512
vt 35.355339 -321.478577
vt 35.355339 -267.570038
vt -35.355339 -267.161102
vt 35.355339 -213.661499
vt -35.355339 -212.434662
vt 35.355339 -159.752960
vt -35.355339 -157.708237
vt 35.355339 -105.844429
vt -35.355339 -102.981812
vt 35.355339 -51.935886
vt 1.344788 -50.094673
vt -35.355339 -48.255379
vt 36.028835 150.000000
vt -36.028835 150.000000
vt 36.028835 50.000000
vt -36.028835 50.000000
vt 82.681999 45.617599
vt 26.840570 89.024750
vt 19.579138 -31.958355
vt -36.403625 11.275052
vt 35.355339 -540.793274
vt 35.355339 -486.066803
vt -35.355339 -537.112732
vt -35.355339 -483.204193
vt 35.355339 -431.340393
vt -35.355339 -429.295654
vt 35.355339 -376.613953
vt -35.355339 -375.387115
vt 35.355339 -321.887512
vt -35.355339 -321.478577
vt -35.355339 -267.570038
vt 35.355339 -267.161102
vt -35.355339 -213.661499
vt 35.355339 -212.434662
vt -35.355339 -159.752960
vt 35.355339 -157.708237
vt -35.355339 -105.844429
vt 35.355339 -102.981812
vt -35.355339 -51.935886
vt 35.355339 -48.255379
vt -82.681999 45.617599
vt -19.579138 -31.958355
vt -26.840570 89.024750
vt 36.403625 11.275052
vt 37.463200 170.561127
vt -33.261398 169.869904
vt 36.229034 70.568733
vt -34.498325 69.653564
vt 0.000000 50.000000
vt 100.000000 50.000000
vt 0.000000 150.000000
vt 100.000000 150.000000
vt -50.000000 0.000000
vt -150.000000 0.000000
vt -0.000000 -50.032608
vt -200.000000 -50.032608
vt -200.000000 -109.839256
vt -0.000000 -109.839256
vt -200.000000 -169.645905
vt -0.000000 -169.645905
vt -200.000000 -229.452560
vt -0.000000 -229.452560
vt -200.000000 -289.259216
vt -0.000000 -289.259216
vt -200.000000 -349.065857
vt -0.000000 -349.065857
vt -200.000000 -408.872498
vt -0.000000 -408.872498
vt -200.000000 -468.679138
vt -0.000000 -468.679138
vt -200.000000 -528.485779
vt -0.000000 -528.485779
vt -200.000000 -588.292419
vt -0.000000 -588.292419
vt -200.000000 -648.099121
vt -0.000000 -648.099121
vt -50.000000 -698.131714
vt -150.000000 -698.131714
vt 51.662579 -274.881470
vt 117.415421 -199.241470
vt 10.674614 -231.348053
vt 79.024605 -157.464401
vt -26.947412 -184.874924
vt 44.143318 -112.715408
vt -60.993340 -135.721649
vt 13.000720 -65.288460
vt -91.272980 -84.162811
vt -14.198596 -15.495147
vt -117.617180 -30.486444
vt -37.275936 36.337406
vt -139.878784 25.007614
vt -56.079685 89.868668
vt -157.933426 82.009361
vt -70.486305 144.746948
vt -171.680267 140.200378
vt -80.401161 200.611725
vt -181.042480 199.255600
vt -85.759094 257.095978
vt -185.967804 258.845123
vt 50.000000 -517.219666
vt 150.000000 -517.219666
vt 50.000000 -465.307739
vt 150.000000 -465.307739
vt 50.000000 -413.395813
vt 150.000000 -413.395813
vt 50.000000 -361.483887
vt 150.000000 -361.483887
vt 50.000000 -309.571960
vt 150.000000 -309.571960
vt 50.000000 -257.660034
vt 150.000000 -257.660034
vt 50.000000 -205.748108
vt 150.000000 -205.748108
vt 50.000000 -153.836182
vt 150.000000 -153.836182
vt 50.000000 -101.924263
vt 150.000000 -101.924263
vt 50.000000 -50.012337
vt 150.000000 -50.012337
vt 50.000000 50.000000
vt 150.000000 50.000000
vt 50.000000 150.000000
vt 150.000000 150.000000
vt -51.662579 -274.881470
vt -10.674614 -231.348053
vt -117.415421 -199.241470
vt -79.024605 -157.464401
vt 26.947412 -184.874924
vt -44.143318 -112.715408
vt 60.993340 -135.721649
vt -13.000720 -65.288460
vt 91.272980 -84.162811
vt 14.198596 -15.495147
vt 117.617180 -30.486444
vt 37.275936 36.337406
vt 139.878784 25.007614
vt 56.079685 89.868668
vt 157.933426 82.009361
vt 70.486305 144.746948
vt 171.680267 140.200378
vt 80.401161 200.611725
vt 181.042480 199.255600
vt 85.759094 257.095978
vt 185.967804 258.845123
vn 0.5711 0.5815 -0.5794
vn 0.5711 0.0415 -0.8198
vn -0.5711 0.5815 -0.5794
vn -0.7071 0.7070 -0.0123
vn 0.0000 0.7084 -0.7058
vn -0.5711 0.0415 -0.8198
vn -0.7071 0.0382 -0.7061
vn -0.7071 0.0401 -0.7060
vn -0.7071 0.0952 -0.7007
vn -0.7071 0.0421 -0.7059
vn -0.7072 0.0982 -0.7002
vn -0.7067 0.1518 -0.6910
vn -0.7074 0.1539 -0.6899
vn -0.7068 0.2072 -0.6763
vn -0.7072 0.2084 -0.6756
vn -0.7070 0.2613 -0.6572
vn -0.7071 0.2614 -0.6570
vn -0.7071 0.3131 -0.6340
vn -0.7072 0.3136 -0.6337
vn -0.7072 0.3626 -0.6069
vn -0.7073 0.3638 -0.6062
vn -0.7071 0.4101 -0.5761
vn -0.7071 0.4118 -0.5749
vn -0.7070 0.4548 -0.5416
vn -0.7071 0.4570 -0.5396
vn -0.7071 0.4964 -0.5036
vn -0.7071 0.4978 -0.5022
vn -0.7071 0.4992 -0.5008
vn 0.0000 0.0506 -0.9987
vn -0.7071 -0.4639 -0.5337
vn 0.7071 0.0382 -0.7061
vn 0.7070 0.0953 -0.7007
vn 0.7071 0.0420 -0.7059
vn 0.7073 0.0983 -0.7001
vn 0.7070 0.1517 -0.6908
vn 0.7072 0.1538 -0.6901
vn 0.7068 0.2072 -0.6763
vn 0.7070 0.2082 -0.6759
vn 0.7070 0.2613 -0.6572
vn 0.7071 0.2614 -0.6570
vn 0.7071 0.3131 -0.6340
vn 0.7072 0.3136 -0.6337
vn 0.7072 0.3626 -0.6069
vn 0.7072 0.3638 -0.6062
vn 0.7071 0.4101 -0.5761
vn 0.7072 0.4117 -0.5748
vn 0.7070 0.4548 -0.5416
vn 0.7072 0.4569 -0.5395
vn 0.7071 0.4964 -0.5035
vn 0.7071 0.4992 -0.5008
vn 0.7071 -0.4639 -0.5337
vn 0.7071 0.7070 -0.0123
vn 0.0000 -0.6561 -0.7547
vn -0.0000 -0.7547 0.6561
vn 0.0000 -0.7122 0.7020
vn -0.0000 -0.7122 0.7019
vn 0.0000 -0.6578 0.7532
vn 0.0000 -0.5997 0.8002
vn 0.0000 -0.5383 0.8428
vn 0.0000 -0.4738 0.8806
vn 0.0000 -0.4067 0.9135
vn 0.0000 -0.3374 0.9414
vn 0.0000 -0.2661 0.9639
vn 0.0000 -0.1934 0.9811
vn 0.0000 -0.1196 0.9928
vn -0.0000 -0.0450 0.9990
vn 0.0000 -0.0451 0.9990
vn -0.0000 0.0174 0.9998
vn 1.0000 0.0000 0.0000
vn -0.0000 0.0595 -0.9982
vn 0.0000 0.1389 -0.9903
vn 0.0000 0.2175 -0.9761
vn 0.0000 0.2946 -0.9556
vn 0.0000 0.3699 -0.9291
vn 0.0000 0.4429 -0.8966
vn 0.0000 0.5130 -0.8584
vn 0.0000 0.5798 -0.8147
vn 0.0000 0.6430 -0.7659
vn 0.0000 0.7020 -0.7121
vn 0.0000 0.9998 -0.0175
vn -1.0000 0.0000 0.0000
usemtl Ring
s 1
f 1/1/1 2/2/1 3/3/1
f 4/4/2 5/5/2 6/6/2
f 7/7/3 8/8/3 9/9/3
f 9/9/3 8/8/3 10/10/3
f 11/11/4 9/12/4 12/13/4
f 12/13/4 9/12/4 10/14/4
f 2/15/5 7/16/5 3/17/5
f 3/17/5 7/16/5 9/18/5
f 13/19/6 14/20/6 15/21/6
f 15/21/6 14/20/6 16/22/6
f 10/23/7 8/24/8 17/25/9
f 17/25/9 8/24/8 7/26/10
f 17/25/9 7/26/10 18/27/11
f 17/25/9 18/27/11 19/28/12
f 19/28/12 18/27/11 20/29/13
f 19/28/12 20/29/13 21/30/14
f 21/30/14 20/29/13 22/31/15
f 21/30/14 22/31/15 23/32/16
f 23/32/16 22/31/15 24/33/17
f 23/32/16 24/33/17 25/34/18
f 23/32/16 25/34/18 26/35/19
f 26/35/19 25/34/18 27/36/20
f 26/35/19 27/36/20 28/37/21
f 28/37/21 27/36/20 29/38/22
f 28/37/21 29/38/22 30/39/23
f 30/39/23 29/38/22 31/40/24
f 30/39/23 31/40/24 32/41/25
f 32/41/25 31/40/24 16/42/26
f 32/41/25 16/42/26 14/43/27
f 14/43/27 13/44/28 32/41/25
f 6/45/29 5/46/29 16/47/29
f 16/47/29 5/46/29 15/48/29
f 33/49/30 34/50/30 15/51/30
f 15/51/30 34/50/30 13/52/30
f 1/53/31 35/54/32 2/55/33
f 2/55/33 35/54/32 36/56/34
f 36/56/34 35/54/32 37/57/35
f 36/56/34 37/57/35 38/58/36
f 38/58/36 37/57/35 39/59/37
f 38/58/36 39/59/37 40/60/38
f 40/60/38 39/59/37 41/61/39
f 40/60/38 41/61/39 42/62/40
f 42/62/40 41/61/39 43/63/41
f 43/63/41 41/61/39 44/64/42
f 43/63/41 44/64/42 45/65/43
f 45/65/43 44/64/42 46/66/44
f 45/65/43 46/66/44 47/67/45
f 47/67/45 46/66/44 48/68/46
f 47/67/45 48/68/46 49/69/47
f 49/69/47 48/68/46 50/70/48
f 49/69/47 50/70/48 6/71/49
f 6/71/49 50/70/48 4/72/50
f 51/73/51 5/74/51 52/75/51
f 52/75/51 5/74/51 4/76/51
f 53/77/52 54/78/52 3/79/52
f 3/79/52 54/78/52 1/80/52
f 33/81/53 15/82/53 51/83/53
f 51/83/53 15/82/53 5/84/53
f 33/85/54 51/86/54 34/87/55
f 34/87/55 51/86/54 52/88/56
f 34/87/55 52/88/56 55/89/57
f 34/87/55 55/89/57 56/90/57
f 56/90/57 55/89/57 57/91/58
f 56/90/57 57/91/58 58/92/58
f 58/92/58 57/91/58 59/93/59
f 58/92/58 59/93/59 60/94/59
f 60/94/59 59/93/59 61/95/60
f 60/94/59 61/95/60 62/96/60
f 62/96/60 61/95/60 63/97/61
f 62/96/60 63/97/61 64/98/61
f 64/98/61 63/97/61 65/99/62
f 64/98/61 65/99/62 66/100/62
f 66/100/62 65/99/62 67/101/63
f 66/100/62 67/101/63 68/102/63
f 68/102/63 67/101/63 69/103/64
f 68/102/63 69/103/64 70/104/64
f 70/104/64 69/103/64 71/105/65
f 70/104/64 71/105/65 72/106/65
f 72/106/65 71/105/65 54/107/66
f 72/106/65 54/107/66 12/108/67
f 12/108/67 54/107/66 11/109/68
f 11/109/68 54/107/66 53/110/68
f 52/111/69 4/112/69 55/113/69
f 55/113/69 4/112/69 50/114/69
f 55/113/69 50/114/69 57/115/69
f 57/115/69 50/114/69 48/116/69
f 57/115/69 48/116/69 59/117/69
f 59/117/69 48/116/69 46/118/69
f 59/117/69 46/118/69 61/119/69
f 61/119/69 46/118/69 44/120/69
f 61/119/69 44/120/69 63/121/69
f 63/121/69 44/120/69 41/122/69
f 63/121/69 41/122/69 65/123/69
f 65/123/69 41/122/69 39/124/69
f 65/123/69 39/124/69 67/125/69
f 67/125/69 39/124/69 37/126/69
f 67/125/69 37/126/69 69/127/69
f 69/127/69 37/126/69 35/128/69
f 69/127/69 35/128/69 71/129/69
f 71/129/69 35/128/69 1/130/69
f 71/129/69 1/130/69 54/131/69
f 7/132/70 2/133/70 18/134/71
f 18/134/71 2/133/70 36/135/71
f 18/134/71 36/135/71 20/136/72
f 20/136/72 36/135/71 38/137/72
f 20/136/72 38/137/72 22/138/73
f 22/138/73 38/137/72 40/139/73
f 22/138/73 40/139/73 24/140/74
f 24/140/74 40/139/73 42/141/74
f 24/140/74 42/141/74 25/142/75
f 25/142/75 42/141/74 43/143/75
f 25/142/75 43/143/75 27/144/76
f 27/144/76 43/143/75 45/145/76
f 27/144/76 45/145/76 29/146/77
f 29/146/77 45/145/76 47/147/77
f 29/146/77 47/147/77 31/148/78
f 31/148/78 47/147/77 49/149/78
f 31/148/78 49/149/78 16/150/79
f 16/150/79 49/149/78 6/151/79
f 9/152/80 11/153/80 3/154/80
f 3/154/80 11/153/80 53/155/80
f 34/156/81 56/157/81 13/158/81
f 13/158/81 56/157/81 32/159/81
f 32/159/81 56/157/81 58/160/81
f 32/159/81 58/160/81 30/161/81
f 30/161/81 58/160/81 60/162/81
f 30/161/81 60/162/81 28/163/81
f 28/163/81 60/162/81 62/164/81
f 28/163/81 62/164/81 26/165/81
f 26/165/81 62/164/81 64/166/81
f 26/165/81 64/166/81 23/167/81
f 23/167/81 64/166/81 66/168/81
f 23/167/81 66/168/81 21/169/81
f 21/169/81 66/168/81 68/170/81
f 21/169/81 68/170/81 19/171/81
f 19/171/81 68/170/81 70/172/81
f 19/171/81 70/172/81 17/173/81
f 17/173/81 70/172/81 72/174/81
f 17/173/81 72/174/81 10/175/81
f 10/175/81 72/174/81 12/176/81
